<svg height="512" viewBox="0 0 301.245 276.411" width="512" xmlns="http://www.w3.org/2000/svg" id="fi_5281433"><g fill="#dcb089"><path d="m205.6 99.766 4.699-15.032s8.268-2.295 12.628 6.598c4.361 8.893-7.05 27.166-16.893 28.702-2.729-6.957-.434-20.268-.434-20.268z"></path><path d="m95.644 99.766-4.699-15.032s-8.268-2.295-12.628 6.598 7.05 27.166 16.893 28.702c2.729-6.957.434-20.268.434-20.268z"></path><path d="m109.821 140.082h81.546v85.575h-81.546z"></path></g><g><path d="m109.821 140.082v13.799s15.975 36.47 48.199 36.47c15.466 0 26.275-6.074 33.346-12.392v-37.878h-81.545z" fill="#bc8866"></path></g><path d="m209.97 99.807c.021-.628.032-1.256.032-1.884 0-39.038 11.392-83.083-57.908-83.73-.319-.006-1.548-.015-1.551-.015 0 0-1.233.009-1.552.015-69.299.647-57.908 44.692-57.908 83.73 0 .628.011 1.256.031 1.884s-.07 29.052 4.222 36.315 29.712 40.456 53.813 40.456c.022-.022 2.806-.023 2.83 0 24.1 0 49.521-33.193 53.813-40.456s4.222-36.315 4.222-36.315z" fill="#dcb089"></path><path d="m301.245 244.863c0-29.534-27.333-40.274-40.333-42.959s-51-12.753-69.5-16.445c-10.767 17.711-36.276 24.863-40.789 26.008-4.512-1.146-30.022-8.297-40.789-26.008-18.5 3.692-56.5 13.76-69.5 16.445-13.001 2.685-40.334 13.425-40.334 42.959 20.667 9.397 70.212 31.548 150.606 31.548.006-.006.01-.011.016-.017.006.006.01.011.016.017 80.394 0 129.94-22.15 150.607-31.548z" fill="#fff"></path><g><path d="m150.554 224.727h.068s41.248-7.548 54.953-37.464c-5.325-1.235-10.195-2.314-14.164-3.101-10.767 17.591-36.276 24.693-40.789 25.831-4.512-1.138-30.022-8.24-40.789-25.831-3.985.79-8.876 1.874-14.226 3.115 13.713 29.903 54.947 37.45 54.947 37.45z" fill="#e4ebf2"></path></g><path d="" fill="none" stroke="#dcb089" stroke-miterlimit="10"></path><g><path d="m150.606 276.411c.006-.006.01-.011.016-.017.006.006.01.011.016.017 80.394 0 129.939-22.151 150.606-31.548 0-3.274-.353-6.305-.968-9.132h-299.308c-.616 2.828-.968 5.858-.968 9.132 20.667 9.398 70.212 31.548 150.606 31.548z" fill="#a5ccf2"></path></g><path d="m90.386 84.467c2.364 1.063 5.636 6.523 5.447 10.911.333 1.653 3.667 2.847 4 .167 0-2.681-4.083-18.764 4.167-23.764 2.25-1.25 2.37-24.716.62-31.966-1.75-1.25-8.598-2.034-14.234 4.466-3.886 4-6.477 18.623-3.432 40.187 1.539 0 3.432-.001 3.432-.001z" fill="#3a2a1f"></path><path d="m210.36 84.467c-2.364 1.063-5.636 6.523-5.447 10.911-.333 1.653-3.667 2.847-4 .167 0-2.681 4.083-18.764-4.167-23.764-2.25-1.25-2.37-24.716-.62-31.966 1.75-1.25 8.598-2.034 14.234 4.466 3.886 4 6.477 18.623 3.432 40.187-1.539 0-3.432-.001-3.432-.001z" fill="#3a2a1f"></path><path d="m211.212 41.193c.001 0 .001 0 0 0-.619-13.337-3.046-23.329-13.213-29.292s-21.167-6.037-25.833-2.537c-6.667-6.5-23-11.833-46-8.167-23 3.667-33.333 22.833-35.201 33.652-1.166 2.789-1.601 6.164-1.629 10.825 4.025-1.955 13.414-7.644 34.164-8.144s20.25 3.25 22.25 5.5c1.873 2.107 2.736 2.581 4.445 2.633.003.003.006.008.009.011.06 0 .111-.004.169-.005.058.001.109.005.169.005.003-.003.006-.008.009-.011 1.708-.052 2.572-.526 4.445-2.633 2-2.25 1.5-6 22.25-5.5s30.139 6.189 34.164 8.144c-.01-1.645-.073-3.125-.198-4.481z" fill="#3a2a1f"></path></svg>