<?xml version="1.0" encoding="UTF-8" standalone="no"?>
<!-- Created with Inkscape (http://www.inkscape.org/) -->

<svg
   version="1.1"
   id="svg69"
   xml:space="preserve"
   width="682.66669"
   height="682.66669"
   viewBox="0 0 682.66669 682.66669"
   xmlns="http://www.w3.org/2000/svg"
   xmlns:svg="http://www.w3.org/2000/svg"><defs
     id="defs73"><clipPath
       clipPathUnits="userSpaceOnUse"
       id="clipPath83"><path
         d="M 0,512 H 512 V 0 H 0 Z"
         id="path81" /></clipPath></defs><g
     id="g75"
     transform="matrix(1.3333333,0,0,-1.3333333,0,682.66667)"><g
       id="g77"><g
         id="g79"
         clip-path="url(#clipPath83)"><g
           id="g85"
           transform="translate(416,56)"><path
             d="M 0,0 V 80"
             style="fill:none;stroke:gray;stroke-width:30;stroke-linecap:round;stroke-linejoin:round;stroke-miterlimit:10;stroke-dasharray:none;stroke-opacity:1"
             id="path87" /></g><g
           id="g89"
           transform="translate(96,56)"><path
             d="M 0,0 V 80"
             style="fill:none;stroke:gray;stroke-width:30;stroke-linecap:round;stroke-linejoin:round;stroke-miterlimit:10;stroke-dasharray:none;stroke-opacity:1"
             id="path91" /></g><g
           id="g93"
           transform="translate(66,376)"><path
             d="m 0,0 c 0,-44.183 35.817,-80 80,-80 44.183,0 80,35.817 80,80 0,44.183 -35.817,80 -80,80 C 35.817,80 0,44.183 0,0 Z"
             style="fill:none;stroke:gray;stroke-width:30;stroke-linecap:round;stroke-linejoin:round;stroke-miterlimit:10;stroke-dasharray:none;stroke-opacity:1"
             id="path95" /></g><g
           id="g97"
           transform="translate(446,376)"><path
             d="m 0,0 c 0,-44.183 -35.817,-80 -80,-80 -44.183,0 -80,35.817 -80,80 0,44.183 35.817,80 80,80 C -35.817,80 0,44.183 0,0 Z"
             style="fill:none;stroke:gray;stroke-width:30;stroke-linecap:round;stroke-linejoin:round;stroke-miterlimit:10;stroke-dasharray:none;stroke-opacity:1"
             id="path99" /></g><g
           id="g101"
           transform="translate(472,266)"><path
             d="M 0,0 V 0 C 13.807,0 25,-11.193 25,-25 V -70 H 0 c -19.33,0 -35,15.67 -35,35 0,19.33 15.67,35 35,35 z"
             style="fill:none;stroke:gray;stroke-width:30;stroke-linecap:round;stroke-linejoin:round;stroke-miterlimit:10;stroke-dasharray:none;stroke-opacity:1"
             id="path103" /></g><g
           id="g105"
           transform="translate(40,266)"><path
             d="M 0,0 V 0 C -13.807,0 -25,-11.193 -25,-25 V -70 H 0 c 19.33,0 35,15.67 35,35 C 35,-15.67 19.33,0 0,0 Z"
             style="fill:none;stroke:gray;stroke-width:30;stroke-linecap:round;stroke-linejoin:round;stroke-miterlimit:10;stroke-dasharray:none;stroke-opacity:1"
             id="path107" /></g><g
           id="g109"
           transform="translate(58.5786,261.1025)"><path
             d="m 0,0 c 20.896,21.497 50.075,34.897 82.421,34.897 63.513,0 115,-51.486 115,-115 v -125 h -230 v 140"
             style="fill:none;stroke:gray;stroke-width:30;stroke-linecap:round;stroke-linejoin:round;stroke-miterlimit:10;stroke-dasharray:none;stroke-opacity:1"
             id="path111" /></g><g
           id="g113"
           transform="translate(141,296)"><path
             d="m 0,0 h 230 c 32.347,0 61.526,-13.4 82.421,-34.897"
             style="fill:none;stroke:gray;stroke-width:30;stroke-linecap:round;stroke-linejoin:round;stroke-miterlimit:10;stroke-dasharray:none;stroke-opacity:1"
             id="path115" /></g><g
           id="g117"
           transform="translate(486,196)"><path
             d="M 0,0 V -140 H -230"
             style="fill:none;stroke:gray;stroke-width:30;stroke-linecap:round;stroke-linejoin:round;stroke-miterlimit:10;stroke-dasharray:none;stroke-opacity:1"
             id="path119" /></g></g></g></g></svg>
