<svg id="icons" enable-background="new 0 0 64 64" height="512" viewBox="0 0 64 64" width="512" xmlns="http://www.w3.org/2000/svg"><g><g><g><path d="m37.21 10.04-1.61 4.94h-5.2l-1.61-4.94 4.21-3.06z" fill="#656d78"/></g><g><path d="m33 23c-1.5 0-2.92-.3-4.22-.84v-.01l4.22-2.21 4.22 2.21v.01c-1.3.54-2.72.84-4.22.84z" fill="#656d78"/></g><g><path d="m30.35 1.33c.85-.22 1.74-.33 2.65-.33s1.8.11 2.65.33c4.52 1.11 7.949 5.04 8.31 9.811l-3.37 3.27.811 4.69c-1.12 1.319-2.551 2.38-4.181 3.06v-.01l-4.22-2.211-4.22 2.21v.01c-1.63-.68-3.061-1.74-4.181-3.06l.811-4.69-3.37-3.27c.36-4.77 3.79-8.7 8.31-9.81zm5.25 13.65 1.61-4.94-4.21-3.06-4.21 3.06 1.61 4.94z" fill="#e6e9ed"/></g><g><path d="m58 43.99v.01c-.01 1.11-1.35 2-3 2s-2.99-.89-3-2v-.01-2.679c.91.439 1.92.68 3 .68s2.09-.24 3-.68z" fill="#eac6bb"/></g><g><path d="m62 30.001v2l-2-1.979-.03-.011c-.27.11-2.489 1-5.029 1-2.591 0-4.73-.93-4.931-1.01l-.01.01-2 2.011v-2.021c0-3.87 3.13-7 7-7s7 3.13 7 7z" fill="#656d78"/></g><g><g><path d="m55 23.001c-.516 0-1.018.06-1.502.165 3.146.687 5.499 3.48 5.499 6.835v.353c.521-.162.876-.304.973-.343l.03.01 2 1.979v-2c0-3.869-3.13-6.999-7-6.999z" fill="#545c66"/></g></g><g><path d="m56.5 50.99h-3-7.5v-4c0-1.66 1.34-3 3-3v.01h3c.01 1.11 1.35 2 3 2s2.99-.89 3-2h3v-.01c1.66 0 3 1.34 3 3v4z" fill="#5d9cec"/></g><g><path d="m62 34.991v.01c0 2.79-1.64 5.2-4 6.311-.91.439-1.92.68-3 .68s-2.09-.24-3-.68c-2.36-1.11-4-3.521-4-6.311v-.01-2.97l2-2.011.01-.01c.2.08 2.34 1.01 4.931 1.01 2.54 0 4.76-.89 5.029-1l.03.011 2 1.979z" fill="#eac6bb"/></g><g><path d="m60 30.021-.03-.011c-.097.039-.451.181-.973.343v4.638.01c0 2.79-1.64 5.2-4 6.311-.474.229-.976.4-1.499.516.483.105.983.164 1.502.164 1.08 0 2.09-.24 3-.68 2.36-1.11 4-3.521 4-6.311v-.01-2.99z" fill="#d3b1a9"/></g><g><path d="m37 50.062v2.929c0 1.66-1.79 3.01-4 3.01s-4-1.35-4-3.01v-2.929-.011c1.2.601 2.57.94 4 .94s2.8-.34 4-.94z" fill="#eac6bb"/></g><g><path d="m27 36.991-3 2.03v-3.03c0-4.42 3.58-8 8-8h6v4c2.21 0 4 1.79 4 4v3.03l-3-2.03s-2.01 1-5.5 1-6.5-1-6.5-1z" fill="#965353"/></g><g><path d="m42 39.021v-3.03c0-2.21-1.79-4-4-4v-4h-3v4c0 1.657 1.343 3 3 3 .552 0 1 .448 1 1v1z" fill="#844747"/></g><g><path d="m42 39.021v2.979c0 3.53-2.04 6.58-5 8.05-1.2.601-2.57.94-4 .94s-2.8-.34-4-.94c-2.95-1.46-4.98-4.489-5-8.01v-.04-2.979l3-2.03s3.01 1 6.5 1 5.5-1 5.5-1z" fill="#eac6bb"/></g><g><path d="m39 36.991-.003.001v5.009c0 3.53-2.04 6.58-5 8.05-.771.386-1.616.649-2.499.8.491.083.99.141 1.502.141 1.43 0 2.8-.34 4-.94 2.96-1.47 5-4.52 5-8.05v-2.979z" fill="#d3b1a9"/></g><g><path d="m30 63h-8c-.55 0-1-.45-1-1v-4.01c0-2.76 2.24-5 5-5h3c0 1.66 1.79 3.01 4 3.01s4-1.35 4-3.01h3c2.76 0 5 2.24 5 5v4.01c0 .55-.45 1-1 1h-8-3z" fill="#5d9cec"/></g><g><g><path d="m40 52.99h-3c2.759.002 4.997 2.241 4.997 5v4.01c0 .55-.45 1-1 1h3.003c.55 0 1-.45 1-1v-4.01c0-2.76-2.24-5-5-5z" fill="#4a89dc"/></g></g><g><path d="m18 30.491v1.37c-1.72-2.24-2.76-2.65-4-2.391l1.99-4.069c1.25 1.33 2.01 3.13 2.01 5.09z" fill="#f6bb42"/></g><g><path d="m4 31.131c-.32-.04-.65-.08-1-.14v-.5c0-4.14 3.36-7.5 7.5-7.5 2.18 0 4.14.93 5.49 2.41l-1.99 4.07c-1.87.39-4.19 2.33-10 1.66z" fill="#ffce54"/></g><g><path d="m14 43.99v.01c-.01 1.11-1.35 2-3 2s-2.99-.89-3-2v-.01-2.679c.91.439 1.92.68 3 .68s2.09-.24 3-.68z" fill="#eac6bb"/></g><g><path d="m18 31.861v3.13c0 2.79-1.63 5.2-4 6.32-.91.439-1.92.68-3 .68s-2.09-.24-3-.68c-2.37-1.12-4-3.53-4-6.32v-3.86c5.81.67 8.13-1.27 10-1.66 1.24-.26 2.28.15 4 2.39z" fill="#eac6bb"/></g><g><path d="m14.997 29.44v5.551c0 2.79-1.63 5.2-4 6.32-.474.229-.976.4-1.499.516.483.105.983.164 1.502.164 1.08 0 2.09-.24 3-.68 2.37-1.12 4-3.53 4-6.32v-3.13c-1.246-1.624-2.136-2.278-3.003-2.421z" fill="#d3b1a9"/></g><g><path d="m11 46c1.65 0 2.99-.89 3-2h3v-.01c1.66 0 3 1.34 3 3v4h-9-9v-4c0-1.66 1.34-3 3-3v.01h3c.01 1.11 1.35 2 3 2z" fill="#5d9cec"/></g><g><g><path d="m17 43.99v.01h-2.905c1.613.053 2.902 1.363 2.902 2.99v4h3.003v-4c0-1.66-1.34-3-3-3z" fill="#4a89dc"/></g></g><g><g><path d="m61 43.99v.01h-2.905c1.613.053 2.902 1.363 2.902 2.99v4h3.003v-4c0-1.66-1.34-3-3-3z" fill="#4a89dc"/></g></g><g><path d="m43.462 15.399c-.464 1.427-1.188 2.685-2.103 3.754l-.009-.003-.798-4.696 3.405-3.331.009.003c.113 1.403-.04 2.847-.504 4.273z" fill="#656d78"/></g><g><path d="m39.466 3.101c1.215.882 2.188 1.959 2.921 3.16l-.005.008-4.713-.692-2.117-4.269.006-.007c1.37.326 2.695.918 3.908 1.8z" fill="#656d78"/></g><g><path d="m26.535 3.101c1.214-.883 2.538-1.475 3.907-1.802l.007.008-2.116 4.268-4.713.695-.005-.008c.734-1.202 1.706-2.281 2.92-3.161z" fill="#656d78"/></g><g><path d="m22.539 15.398c-.464-1.427-.618-2.869-.506-4.272l.009-.005 3.405 3.332-.795 4.697-.01.002c-.916-1.069-1.641-2.327-2.103-3.754z" fill="#656d78"/></g></g><g fill="#e6e9ed"><path d="m11 47.998c-.553 0-1 .447-1 1v2h2v-2c0-.553-.447-1-1-1z"/><g><path d="m53.5 47.998c-.553 0-1 .447-1 1v2h2v-2c0-.553-.447-1-1-1z"/><path d="m56.5 47.998c-.553 0-1 .447-1 1v2h2v-2c0-.553-.447-1-1-1z"/></g><g><path d="m33 59c-.553 0-1 .447-1 1v3h2v-3c0-.553-.447-1-1-1z"/><path d="m36 59c-.553 0-1 .447-1 1v3h2v-3c0-.553-.447-1-1-1z"/><path d="m30 59c-.553 0-1 .447-1 1v3h2v-3c0-.553-.447-1-1-1z"/></g></g></g></svg>