<svg id="Layer" height="512" viewBox="0 0 24 24" width="512" xmlns="http://www.w3.org/2000/svg"><g id="user-edit"><path d="m6.009 6.5a4 4 0 1 1 4 4 4 4 0 0 1 -4-4zm10.048 7.68a.4.4 0 0 0 -.127-.24 5.356 5.356 0 0 0 -3.93-1.44h-4c-4.06 0-5.5 2.97-5.5 5.52 0 2.28 1.21 3.48 3.5 3.48h5.2a.272.272 0 0 0 .21-.09.324.324 0 0 0 .09-.215v-1.695a1.5 1.5 0 0 1 .44-1.06l4.03-4.05a.309.309 0 0 0 .087-.21zm-3.057 5.32v2.5h2.5l4.539-4.519-2.519-2.519zm8.708-5.089-1.12-1.12a1 1 0 0 0 -1.41 0l-.959.97 2.519 2.519.97-.959a1 1 0 0 0 0-1.409z" fill="gray"/></g></svg>