<svg id="fi_3641258" enable-background="new 0 0 512 512" height="512" viewBox="0 0 512 512" width="512" xmlns="http://www.w3.org/2000/svg"><path d="m510.915 25.979c-1.952-4.273-6.218-7.014-10.915-7.014h-488c-4.697 0-8.963 2.741-10.915 7.014-1.952 4.272-1.231 9.292 1.844 12.842l201.628 232.818v209.396c0 4.57 2.596 8.743 6.694 10.763 1.682.829 3.498 1.237 5.304 1.237 2.595 0 5.173-.841 7.31-2.482l78.889-60.576c2.958-2.271 4.692-5.789 4.692-9.518v-148.821l201.625-232.817c3.075-3.55 3.796-8.57 1.844-12.842zm-224.541 233.33c-1.889 2.182-2.929 4.97-2.929 7.856v147.379l-54.889 42.147v-189.526c0-2.886-1.04-5.674-2.929-7.856l-113.976-131.607h288.697zm134.76-155.607h-330.267l-52.6-60.737h435.467z"></path></svg>