<?xml version="1.0" encoding="UTF-8"?>
<svg xmlns="http://www.w3.org/2000/svg" xmlns:xlink="http://www.w3.org/1999/xlink" version="1.1" id="Capa_1" x="0px" y="0px" viewBox="0 0 512 512" style="enable-background:new 0 0 512 512;" xml:space="preserve" width="512" height="512">
<g id="XMLID_32_">
	
		<polyline id="XMLID_538_" style="fill:none;stroke:gray;stroke-width:20;stroke-linecap:round;stroke-linejoin:round;stroke-miterlimit:10;" points="&#10;&#9;&#9;210.816,116.037 232.116,137.338 296.016,73.438 &#9;"/>
	
		<path id="XMLID_537_" style="fill:none;stroke:gray;stroke-width:20;stroke-linecap:round;stroke-linejoin:round;stroke-miterlimit:10;" d="&#10;&#9;&#9;M160.612,502H10v-35.143c0-41.591,33.715-75.307,75.307-75.307c41.591,0,75.306,33.716,75.306,75.307V502z"/>
	
		<path id="XMLID_536_" style="fill:none;stroke:gray;stroke-width:20;stroke-linecap:round;stroke-linejoin:round;stroke-miterlimit:10;" d="&#10;&#9;&#9;M130.49,346.367c0-24.953-20.23-45.184-45.184-45.184c-24.954,0-45.185,20.23-45.185,45.184c0,24.954,20.23,45.184,45.185,45.184&#10;&#9;&#9;C110.26,391.551,130.49,371.321,130.49,346.367z"/>
	
		<path id="XMLID_535_" style="fill:none;stroke:gray;stroke-width:20;stroke-linecap:round;stroke-linejoin:round;stroke-miterlimit:10;" d="&#10;&#9;&#9;M502,502H351.388v-35.143c0-41.591,33.715-75.307,75.306-75.307c41.592,0,75.307,33.716,75.307,75.307V502z"/>
	
		<path id="XMLID_534_" style="fill:none;stroke:gray;stroke-width:20;stroke-linecap:round;stroke-linejoin:round;stroke-miterlimit:10;" d="&#10;&#9;&#9;M471.878,346.367c0-24.953-20.23-45.184-45.185-45.184c-24.953,0-45.184,20.23-45.184,45.184c0,24.954,20.23,45.184,45.184,45.184&#10;&#9;&#9;C451.647,391.551,471.878,371.321,471.878,346.367z"/>
	
		<path id="XMLID_533_" style="fill:none;stroke:gray;stroke-width:20;stroke-linecap:round;stroke-linejoin:round;stroke-miterlimit:10;" d="&#10;&#9;&#9;M351.388,502H160.612v-35.143c0-52.682,42.707-95.389,95.388-95.389s95.388,42.707,95.388,95.389V502z"/>
	
		<ellipse id="XMLID_513_" style="fill:none;stroke:gray;stroke-width:20;stroke-linecap:round;stroke-linejoin:round;stroke-miterlimit:10;" cx="255.958" cy="316.508" rx="55" ry="54.971"/>
	
		<circle id="XMLID_512_" style="fill:none;stroke:gray;stroke-width:20;stroke-linecap:round;stroke-linejoin:round;stroke-miterlimit:10;" cx="256" cy="105.388" r="95.388"/>
</g>















</svg>
