<?xml version="1.0" encoding="UTF-8" standalone="no"?>
<!-- Created with Inkscape (http://www.inkscape.org/) -->

<svg
   version="1.1"
   id="svg2559"
   xml:space="preserve"
   width="682.66669"
   height="682.66669"
   viewBox="0 0 682.66669 682.66669"
   xmlns="http://www.w3.org/2000/svg"
   xmlns:svg="http://www.w3.org/2000/svg"><defs
     id="defs2563"><clipPath
       clipPathUnits="userSpaceOnUse"
       id="clipPath2573"><path
         d="M 0,512 H 512 V 0 H 0 Z"
         id="path2571" /></clipPath></defs><g
     id="g2565"
     transform="matrix(1.3333333,0,0,-1.3333333,0,682.66667)"><g
       id="g2567"><g
         id="g2569"
         clip-path="url(#clipPath2573)"><g
           id="g2575"
           transform="translate(220,20)"><path
             d="m 0,0 h -200 v 80 c 0,22.091 17.909,40 40,40 h 120 c 22.091,0 40,-17.909 40,-40 z"
             style="fill:none;stroke:gray;stroke-width:40;stroke-linecap:butt;stroke-linejoin:miter;stroke-miterlimit:10;stroke-dasharray:none;stroke-opacity:1"
             id="path2577" /></g><g
           id="g2579"
           transform="translate(180,240)"><path
             d="m 0,0 c 0,-33.137 -26.863,-60 -60,-60 -33.137,0 -60,26.863 -60,60 0,33.137 26.863,60 60,60 C -26.863,60 0,33.137 0,0 Z"
             style="fill:none;stroke:gray;stroke-width:40;stroke-linecap:round;stroke-linejoin:round;stroke-miterlimit:10;stroke-dasharray:none;stroke-opacity:1"
             id="path2581" /></g><g
           id="g2583"
           transform="translate(492,212)"><path
             d="m 0,0 h -200 v 80 c 0,22.091 17.908,40 40,40 h 120 c 22.092,0 40,-17.909 40,-40 z"
             style="fill:none;stroke:gray;stroke-width:40;stroke-linecap:butt;stroke-linejoin:miter;stroke-miterlimit:10;stroke-dasharray:none;stroke-opacity:1"
             id="path2585" /></g><g
           id="g2587"
           transform="translate(452,432)"><path
             d="m 0,0 c 0,-33.137 -26.863,-60 -60,-60 -33.137,0 -60,26.863 -60,60 0,33.137 26.863,60 60,60 C -26.863,60 0,33.137 0,0 Z"
             style="fill:none;stroke:gray;stroke-width:40;stroke-linecap:round;stroke-linejoin:round;stroke-miterlimit:10;stroke-dasharray:none;stroke-opacity:1"
             id="path2589" /></g><g
           id="g2591"
           transform="translate(56,356)"><path
             d="M 0,0 V 20 C 0,42.091 17.909,60 40,60 H 140"
             style="fill:none;stroke:gray;stroke-width:40;stroke-linecap:butt;stroke-linejoin:miter;stroke-miterlimit:10;stroke-dasharray:none;stroke-opacity:1"
             id="path2593" /></g><g
           id="g2595"
           transform="translate(156,456)"><path
             d="M 0,0 40,-40 0,-80"
             style="fill:none;stroke:gray;stroke-width:40;stroke-linecap:square;stroke-linejoin:miter;stroke-miterlimit:10;stroke-dasharray:none;stroke-opacity:1"
             id="path2597" /></g><g
           id="g2599"
           transform="translate(456,136)"><path
             d="M 0,0 V -20 C 0,-42.091 -17.908,-60 -40,-60 H -140"
             style="fill:none;stroke:gray;stroke-width:40;stroke-linecap:butt;stroke-linejoin:miter;stroke-miterlimit:10;stroke-dasharray:none;stroke-opacity:1"
             id="path2601" /></g><g
           id="g2603"
           transform="translate(356,36)"><path
             d="M 0,0 -40,40 0,80"
             style="fill:none;stroke:gray;stroke-width:40;stroke-linecap:square;stroke-linejoin:miter;stroke-miterlimit:10;stroke-dasharray:none;stroke-opacity:1"
             id="path2605" /></g></g></g></g></svg>
