<?xml version="1.0" encoding="UTF-8" standalone="no"?>
<!-- Created with Inkscape (http://www.inkscape.org/) -->

<svg
   version="1.1"
   id="svg3201"
   xml:space="preserve"
   width="682.66669"
   height="682.66669"
   viewBox="0 0 682.66669 682.66669"
   xmlns="http://www.w3.org/2000/svg"
   xmlns:svg="http://www.w3.org/2000/svg"><defs
     id="defs3205"><clipPath
       clipPathUnits="userSpaceOnUse"
       id="clipPath3215"><path
         d="M 0,512 H 512 V 0 H 0 Z"
         id="path3213" /></clipPath></defs><g
     id="g3207"
     transform="matrix(1.3333333,0,0,-1.3333333,0,682.66667)"><g
       id="g3209"><g
         id="g3211"
         clip-path="url(#clipPath3215)"><g
           id="g3217"
           transform="translate(255.999,185.1641)"><path
             d="m 0,0 c 22,0 40,-18 40,-40 v -20 c 0,-22 -18,-40 -40,-40 -22,0 -40,18 -40,40 v 20 c 0,22 18,40 40,40 z"
             style="fill:none;stroke:gray;stroke-width:20;stroke-linecap:round;stroke-linejoin:round;stroke-miterlimit:22.926;stroke-dasharray:none;stroke-opacity:1"
             id="path3219" /></g><g
           id="g3221"
           transform="translate(287.1689,97.79)"><path
             d="m 0,0 c 22.968,-11.516 38.83,-35.309 38.83,-62.625 v -25.161 h -140 v 25.161 c 0,27.355 15.905,51.173 38.922,62.672"
             style="fill:none;stroke:gray;stroke-width:20;stroke-linecap:round;stroke-linejoin:round;stroke-miterlimit:22.926;stroke-dasharray:none;stroke-opacity:1"
             id="path3223" /></g><g
           id="g3225"
           transform="translate(141.7119,160.1406)"><path
             d="m 0,0 c 18.857,0 34.286,-15.429 34.286,-34.285 v -17.144 c 0,-18.857 -15.429,-34.285 -34.286,-34.285 -18.856,0 -34.285,15.428 -34.285,34.285 v 17.144 C -34.285,-15.429 -18.856,0 0,0 Z"
             style="fill:none;stroke:gray;stroke-width:20;stroke-linecap:round;stroke-linejoin:round;stroke-miterlimit:22.926;stroke-dasharray:none;stroke-opacity:1"
             id="path3227" /></g><g
           id="g3229"
           transform="translate(185.999,10.0039)"><path
             d="m 0,0 h -104.286 v 21.566 c 0,23.448 13.633,43.863 33.361,53.719 m 53.356,-0.04 C -7.867,70.38 0.354,62.957 6.2,53.878"
             style="fill:none;stroke:gray;stroke-width:20;stroke-linecap:round;stroke-linejoin:round;stroke-miterlimit:22.926;stroke-dasharray:none;stroke-opacity:1"
             id="path3231" /></g><g
           id="g3233"
           transform="translate(370.2861,160.1406)"><path
             d="m 0,0 c 18.857,0 34.285,-15.429 34.285,-34.285 v -17.144 c 0,-18.857 -15.428,-34.285 -34.285,-34.285 -18.857,0 -34.286,15.428 -34.286,34.285 v 17.144 C -34.286,-15.429 -18.857,0 0,0 Z"
             style="fill:none;stroke:gray;stroke-width:20;stroke-linecap:round;stroke-linejoin:round;stroke-miterlimit:22.926;stroke-dasharray:none;stroke-opacity:1"
             id="path3235" /></g><g
           id="g3237"
           transform="translate(319.7988,63.8818)"><path
             d="m 0,0 c 5.861,9.104 14.112,16.542 23.85,21.407 m 53.354,-0.04 c 19.687,-9.871 33.283,-30.264 33.283,-53.679 V -53.878 H 6.2"
             style="fill:none;stroke:gray;stroke-width:20;stroke-linecap:round;stroke-linejoin:round;stroke-miterlimit:22.926;stroke-dasharray:none;stroke-opacity:1"
             id="path3239" /></g><g
           id="g3241"
           transform="translate(167.5078,483.4785)"><path
             d="m 0,0 c 80.595,35.375 178.068,20.077 244.055,-45.909 85.915,-85.916 85.915,-225.212 0,-311.127 -2.284,-2.284 -4.734,-4.438 -6.992,-6.695 m -297.147,0.011 c -2.364,2.168 -4.697,4.393 -6.988,6.684 -83.923,83.923 -85.853,218.771 -5.822,305.057"
             style="fill:none;stroke:gray;stroke-width:20;stroke-linecap:round;stroke-linejoin:round;stroke-miterlimit:2.613;stroke-dasharray:none;stroke-opacity:1"
             id="path3243" /></g><g
           id="g3245"
           transform="translate(37.6709,266.6035)"><path
             d="m 0,0 c 24.958,-1.572 27.375,14.564 42.745,1.854 8.693,-7.19 22.954,-32.26 38.078,-8.88 9.266,14.325 -32.905,45.738 5.031,55.621 9.739,2.537 16.747,-19.522 31.091,-19.968 13.699,-0.426 33.509,3.75 26.979,23.238 -4.499,13.428 -13.833,19.702 -30.851,27.906 -8.884,4.283 -32.087,8.475 -34.627,17.228 -11.581,39.911 -15.06,12.154 -46.212,33.011"
             style="fill:none;stroke:gray;stroke-width:20;stroke-linecap:round;stroke-linejoin:round;stroke-miterlimit:2.613;stroke-dasharray:none;stroke-opacity:1"
             id="path3247" /></g><g
           id="g3249"
           transform="translate(240.374,499.5127)"><path
             d="M 0,0 C 0.21,-7.411 4.075,-9.808 4.179,-15.553 4.37,-26.226 -6.689,-26.09 -0.437,-37.55 c 11.915,-21.842 49.672,-14.291 40.309,-36.758 -6.429,-15.427 6.918,-29.66 -26.56,-34.863 -13.096,-2.035 -13.853,-25.328 -11.067,-28.61 9.308,-10.963 16.982,7.4 37.211,-14.969 12.399,-13.712 23.008,-0.423 30.553,-10.373 11.864,-29.267 23.778,-17.961 23.778,-48.897 0,-18.621 25.674,-15.148 33.406,13.713 5.441,20.301 18.554,21.184 30.784,0.42 25.237,-42.846 34.832,-3.113 44.415,-12.697 10.877,-10.877 22.053,7.78 32.658,3.158"
             style="fill:none;stroke:gray;stroke-width:20;stroke-linecap:round;stroke-linejoin:round;stroke-miterlimit:2.613;stroke-dasharray:none;stroke-opacity:1"
             id="path3251" /></g><g
           id="g3253"
           transform="translate(128.374,461.2451)"><path
             d="M 0,0 H 0.007"
             style="fill:none;stroke:gray;stroke-width:20;stroke-linecap:round;stroke-linejoin:round;stroke-miterlimit:2.613;stroke-dasharray:none;stroke-opacity:1"
             id="path3255" /></g></g></g></g></svg>
