<?xml version="1.0" encoding="UTF-8"?>
<svg xmlns="http://www.w3.org/2000/svg" xmlns:xlink="http://www.w3.org/1999/xlink" version="1.1" id="Capa_1" x="0px" y="0px" viewBox="0 0 511.979 511.979" style="enable-background:new 0 0 511.979 511.979;" xml:space="preserve" width="512" height="512">
<g>
	<path style="fill:none;stroke:#000000;stroke-width:15;stroke-miterlimit:10;" d="M379.6,210.968v-30h-60&#10;&#9;&#9;c-24.853,0-45,20.147-45,45v0c0,24.853,20.147,45,45,45h15c8.284,0,15,6.716,15,15v0c0,8.284-6.716,15-15,15h-60v30h60&#10;&#9;&#9;c24.853,0,45-20.147,45-45v0c0-24.853-20.147-45-45-45h-15c-8.284,0-15-6.716-15-15v0c0-8.284,6.716-15,15-15H379.6z"/>
	<polyline style="fill:none;stroke:#000000;stroke-width:15;stroke-miterlimit:10;" points="171.304,210.968 162.304,180.968 &#10;&#9;&#9;132.304,180.968 177.304,330.968 207.304,330.968 252.303,180.968 222.303,180.968 192.304,280.966 175.804,225.968 &#9;"/>
	<polygon style="fill:none;stroke:#000000;stroke-width:15;stroke-miterlimit:10;" points="425.952,255.968 442.337,218.902 &#10;&#9;&#9;413.057,190.899 413.944,150.394 376.16,135.76 361.525,97.976 321.021,98.863 293.018,69.584 255.952,85.968 218.886,69.584 &#10;&#9;&#9;190.883,98.863 150.378,97.977 135.744,135.76 97.96,150.395 98.847,190.899 69.568,218.902 85.952,255.968 69.568,293.034 &#10;&#9;&#9;98.847,321.038 97.961,361.542 135.744,376.177 150.379,413.96 190.883,413.073 218.886,442.353 255.952,425.968 293.018,442.353 &#10;&#9;&#9;321.022,413.073 361.526,413.96 376.161,376.176 413.944,361.541 413.057,321.037 442.337,293.034 &#9;"/>
	<polyline style="fill:none;stroke:#000000;stroke-width:15;stroke-miterlimit:10;" points="268.658,60.968 286.481,7.5 &#10;&#9;&#9;501.484,7.5 471.484,97.976 360.952,97.976 &#9;"/>
	<polyline style="fill:none;stroke:#000000;stroke-width:15;stroke-miterlimit:10;" points="210.952,504.479 255.496,504.479 &#10;&#9;&#9;232.745,436.226 &#9;"/>
	
		<line style="fill:none;stroke:#000000;stroke-width:15;stroke-miterlimit:10;" x1="180.952" y1="504.479" x2="195.952" y2="504.479"/>
	<polyline style="fill:none;stroke:#000000;stroke-width:15;stroke-miterlimit:10;" points="150.952,413.96 10.493,413.96 &#10;&#9;&#9;40.493,504.479 165.952,504.479 &#9;"/>
	
		<line style="fill:none;stroke:#000000;stroke-width:15;stroke-miterlimit:10;" x1="315.952" y1="30.968" x2="315.952" y2="45.968"/>
	
		<line style="fill:none;stroke:#000000;stroke-width:15;stroke-miterlimit:10;" x1="180.952" y1="120.968" x2="180.952" y2="135.968"/>
	
		<line style="fill:none;stroke:#000000;stroke-width:15;stroke-miterlimit:10;" x1="210.952" y1="120.968" x2="210.952" y2="135.968"/>
	
		<line style="fill:none;stroke:#000000;stroke-width:15;stroke-miterlimit:10;" x1="60.952" y1="435.968" x2="60.952" y2="450.968"/>
</g>















</svg>
