<?xml version="1.0" encoding="UTF-8"?>
<svg xmlns="http://www.w3.org/2000/svg" xmlns:xlink="http://www.w3.org/1999/xlink" version="1.1" id="Capa_1" x="0px" y="0px" viewBox="0 0 512.001 512.001" style="enable-background:new 0 0 512.001 512.001;" xml:space="preserve" width="512" height="512">
<g>
	<g>
		<path style="fill:none;stroke:black;stroke-width:15;stroke-linecap:round;stroke-linejoin:round;stroke-miterlimit:10;" d="&#10;&#9;&#9;&#9;M165.493,409.282c1.473,3.245,3.061,6.577,4.764,9.941c9.859,19.471,0.569,43.29-19.997,50.594&#10;&#9;&#9;&#9;c-0.202,0.072-0.404,0.143-0.607,0.214c-10.129,3.528-21.346,2.393-30.544-3.126c-26.816-16.089-52.034-17.571-74.595-16.989&#10;&#9;&#9;&#9;c-23.044-19.935-37.482-49.542-37.003-82.511c0.85-58.454,48.993-105.637,107.452-105.368&#10;&#9;&#9;&#9;c51.645,0.238,94.648,37.08,104.386,85.919c-9.932,1.182-18.499,2.729-25.855,4.46&#10;&#9;&#9;&#9;C168.335,358.338,154.812,385.745,165.493,409.282z"/>
		<path style="fill:none;stroke:black;stroke-width:15;stroke-linecap:round;stroke-linejoin:round;stroke-miterlimit:10;" d="&#10;&#9;&#9;&#9;M219.35,314.58l-88.218,41.758l-13.425,65.441c-1.614,7.866,4.395,15.233,12.425,15.233h113.284"/>
		
			<polyline style="fill:none;stroke:black;stroke-width:15;stroke-linecap:round;stroke-linejoin:round;stroke-miterlimit:10;" points="&#10;&#9;&#9;&#9;122.36,399.121 184.89,399.121 201.23,399.121 &#9;&#9;"/>
		
			<polyline style="fill:none;stroke:black;stroke-width:15;stroke-linecap:round;stroke-linejoin:round;stroke-miterlimit:10;" points="&#10;&#9;&#9;&#9;235.95,399.121 243.42,399.121 243.42,479.081 208.45,479.081 184.89,399.121 168.07,342.051 &#9;&#9;"/>
		
			<polyline style="fill:none;stroke:black;stroke-width:15;stroke-linecap:round;stroke-linejoin:round;stroke-miterlimit:10;" points="&#10;&#9;&#9;&#9;101.693,314.575 67.174,355.54 101.925,355.54 67.174,397.54 &#9;&#9;"/>
	</g>
	<g>
		<path style="fill:none;stroke:black;stroke-width:15;stroke-linecap:round;stroke-linejoin:round;stroke-miterlimit:10;" d="&#10;&#9;&#9;&#9;M490.12,315.541c8.89,15.3,14.09,32.99,14.37,51.86c0.48,32.97-13.96,62.58-37,82.52c-22.57-0.59-47.78,0.9-74.6,16.98&#10;&#9;&#9;&#9;c-9.2,5.52-20.41,6.66-30.54,3.13c-0.21-0.07-0.41-0.14-0.61-0.21c-20.57-7.31-29.86-31.13-20-50.6c1.71-3.36,3.29-6.69,4.77-9.94&#10;&#9;&#9;&#9;c10.68-23.54-2.84-50.94-28.01-56.86c-7.35-1.73-15.92-3.28-25.85-4.46c9.74-48.84,52.74-85.69,104.39-85.92&#10;&#9;&#9;&#9;c27.05-0.12,51.88,9.91,70.85,26.53"/>
		<path style="fill:none;stroke:black;stroke-width:15;stroke-linecap:round;stroke-linejoin:round;stroke-miterlimit:10;" d="&#10;&#9;&#9;&#9;M292.65,314.58l88.218,41.758l13.425,65.441c1.614,7.866-4.395,15.233-12.425,15.233H268.583"/>
		
			<polyline style="fill:none;stroke:black;stroke-width:15;stroke-linecap:round;stroke-linejoin:round;stroke-miterlimit:10;" points="&#10;&#9;&#9;&#9;343.93,342.055 303.548,479.08 268.583,479.08 268.583,399.119 389.644,399.119 &#9;&#9;"/>
		<path style="fill:none;stroke:black;stroke-width:15;stroke-linecap:round;stroke-linejoin:round;stroke-miterlimit:10;" d="&#10;&#9;&#9;&#9;M444.568,324.675l6.303,12.771c0.875,1.773,2.566,3.002,4.523,3.286l14.094,2.048c4.927,0.716,6.895,6.771,3.329,10.246&#10;&#9;&#9;&#9;l-10.198,9.941c-1.416,1.38-2.062,3.368-1.728,5.317l2.408,14.037c0.842,4.907-4.309,8.649-8.716,6.333l-12.606-6.627&#10;&#9;&#9;&#9;c-1.75-0.92-3.841-0.92-5.591,0l-12.606,6.627c-4.407,2.317-9.558-1.425-8.716-6.333l2.408-14.037&#10;&#9;&#9;&#9;c0.334-1.949-0.312-3.937-1.728-5.317l-10.198-9.941c-3.565-3.475-1.598-9.53,3.329-10.246l14.094-2.048&#10;&#9;&#9;&#9;c1.957-0.284,3.648-1.513,4.523-3.286l6.303-12.771C435.998,320.21,442.365,320.21,444.568,324.675z"/>
	</g>
	<g>
		<path style="fill:none;stroke:black;stroke-width:15;stroke-linecap:round;stroke-linejoin:round;stroke-miterlimit:10;" d="&#10;&#9;&#9;&#9;M318.531,192.4c0,0-13.96-11.734-30.422-6.775c-15.115,4.553-17.23,21.983-6.294,29.112c0,0,10.731,4.787,22.633,9.177&#10;&#9;&#9;&#9;c28.65,10.568,16.309,38.285-6.755,38.285c-11.55,0-21.243-5.058-27.111-11.532"/>
	</g>
	<g>
		<path style="fill:none;stroke:black;stroke-width:15;stroke-linecap:round;stroke-linejoin:round;stroke-miterlimit:10;" d="&#10;&#9;&#9;&#9;M190.931,184.403l26.599,76.629c0.557,1.569,2.781,1.554,3.317-0.023l25.402-76.464"/>
	</g>
	
		<polyline style="fill:none;stroke:black;stroke-width:15;stroke-linecap:round;stroke-linejoin:round;stroke-miterlimit:10;" points="&#10;&#9;&#9;152.5,136.691 186.21,143.301 181.73,32.921 256.02,120.111 330.3,32.921 325.82,143.301 444.12,120.111 362.97,202.021 &#10;&#9;&#9;469.92,253.671 &#9;"/>
	
		<polyline style="fill:none;stroke:black;stroke-width:15;stroke-linecap:round;stroke-linejoin:round;stroke-miterlimit:10;" points="&#10;&#9;&#9;118.17,129.961 67.92,120.111 149.06,202.021 42.12,253.671 &#9;"/>
</g>















</svg>
