<svg id="Capa_1" enable-background="new 0 0 510 510" height="512" viewBox="0 0 510 510" width="512" xmlns="http://www.w3.org/2000/svg" xmlns:xlink="http://www.w3.org/1999/xlink"><linearGradient id="lg1"><stop offset="0" stop-color="#fef0ae"/><stop offset="1" stop-color="#fac600"/></linearGradient><linearGradient id="SVGID_1_" gradientUnits="userSpaceOnUse" x1="248.91" x2="347.91" xlink:href="#lg1" y1="73.594" y2="158.094"/><linearGradient id="lg2"><stop offset="0" stop-color="#fea613" stop-opacity="0"/><stop offset=".2032" stop-color="#fda215" stop-opacity=".203"/><stop offset=".4052" stop-color="#fb961b" stop-opacity=".405"/><stop offset=".6066" stop-color="#f68225" stop-opacity=".607"/><stop offset=".8066" stop-color="#f06633" stop-opacity=".807"/><stop offset="1" stop-color="#e94444"/></linearGradient><linearGradient id="SVGID_00000065049633531244675740000006276638005257542552_" gradientUnits="userSpaceOnUse" x1="309.935" x2="359.268" xlink:href="#lg2" y1="163.853" y2="175.187"/><linearGradient id="SVGID_00000139984123974158161330000017204549204134429866_" gradientTransform="matrix(-1 0 .055 -1 -586.947 315.348)" gradientUnits="userSpaceOnUse" x1="-791.608" x2="-946.401" xlink:href="#lg2" y1="200.773" y2="202.008"/><linearGradient id="SVGID_00000135654034055153729810000014283488169631039904_" gradientUnits="userSpaceOnUse" x1="304.823" x2="304.823" xlink:href="#lg2" y1="125.5" y2="176.852"/><linearGradient id="lg3"><stop offset="0" stop-color="#fe646f"/><stop offset="1" stop-color="#c41926"/></linearGradient><linearGradient id="SVGID_00000021113086363410159370000001588358930516044981_" gradientUnits="userSpaceOnUse" x1="117.112" x2="252.632" xlink:href="#lg3" y1="155.35" y2="257.442"/><linearGradient id="lg4"><stop offset="0" stop-color="#a72b2b" stop-opacity="0"/><stop offset=".1996" stop-color="#a32b2a" stop-opacity=".2"/><stop offset=".3982" stop-color="#972926" stop-opacity=".398"/><stop offset=".5966" stop-color="#832820" stop-opacity=".597"/><stop offset=".7949" stop-color="#672517" stop-opacity=".795"/><stop offset=".9914" stop-color="#44210c" stop-opacity=".991"/><stop offset="1" stop-color="#42210b"/></linearGradient><linearGradient id="SVGID_00000096775773723888233960000003618291477948692139_" gradientUnits="userSpaceOnUse" x1="-116.592" x2="332.656" xlink:href="#lg4" y1="-154.381" y2="359.916"/><linearGradient id="SVGID_00000060748091796744900500000018142156985370973324_" gradientUnits="userSpaceOnUse" x1="204.587" x2="163.931" xlink:href="#lg4" y1="176.694" y2="195.215"/><linearGradient id="SVGID_00000057113997970836642500000015806920934315321014_" gradientUnits="userSpaceOnUse" x1="95.429" x2="230.948" xlink:href="#lg3" y1="133.667" y2="235.758"/><linearGradient id="SVGID_00000054240736360573612840000005413122556788574339_" gradientUnits="userSpaceOnUse" x1="300.161" x2="13.59" xlink:href="#lg3" y1="214.254" y2="214.254"/><linearGradient id="SVGID_00000060746110420028530100000006354108058777550472_" gradientUnits="userSpaceOnUse" x1="175.397" x2="175.397" xlink:href="#lg4" y1="161.333" y2="87.997"/><linearGradient id="SVGID_00000039115694128644015800000002831634996557561478_" gradientUnits="userSpaceOnUse" x1="175.478" x2="175.478" xlink:href="#lg4" y1="278.228" y2="341.123"/><linearGradient id="SVGID_00000162354616598372242350000014251752219237596309_" gradientUnits="userSpaceOnUse" x1="208.178" x2="246.124" xlink:href="#lg4" y1="216.102" y2="227.847"/><linearGradient id="SVGID_00000089574796802045099470000016331654084707082684_" gradientTransform="matrix(1 0 -.019 1 9.866 0)" gradientUnits="userSpaceOnUse" x1="205.587" x2="284.219" xlink:href="#lg1" y1="372.576" y2="410.451"/><linearGradient id="SVGID_00000127023293062147665490000004647055009865215150_" gradientTransform="matrix(1 0 -.019 1 9.866 0)" gradientUnits="userSpaceOnUse" x1="334.966" x2="180.173" xlink:href="#lg2" y1="395.425" y2="396.66"/><linearGradient id="SVGID_00000008119470289266337330000015393275232772054460_" gradientTransform="matrix(1 0 -.019 1 9.866 0)" gradientUnits="userSpaceOnUse" x1="270.214" x2="292.445" xlink:href="#lg2" y1="405.345" y2="418.93"/><linearGradient id="SVGID_00000043455958858245737720000014195892038499010748_" gradientTransform="matrix(1 0 -.019 1 9.866 0)" gradientUnits="userSpaceOnUse" x1="257.889" x2="257.889" xlink:href="#lg2" y1="436.931" y2="507.794"/><linearGradient id="lg5"><stop offset="0" stop-color="#c8effe"/><stop offset="1" stop-color="#62dbfb"/></linearGradient><linearGradient id="SVGID_00000066478508794989202240000008249614220919970947_" gradientUnits="userSpaceOnUse" x1="173.651" x2="449.756" xlink:href="#lg5" y1="147.028" y2="406.543"/><linearGradient id="lg6"><stop offset="0" stop-color="#07b2cd" stop-opacity="0"/><stop offset=".4553" stop-color="#05a5ce" stop-opacity=".455"/><stop offset="1" stop-color="#0290cf"/></linearGradient><linearGradient id="SVGID_00000120559249653582204980000010029673181613390998_" gradientUnits="userSpaceOnUse" x1="152.593" x2="429.289" xlink:href="#lg6" y1="104.02" y2="396.714"/><linearGradient id="SVGID_00000107567712352358577830000016254953377075849635_" gradientUnits="userSpaceOnUse" x1="372.952" x2="333.254" xlink:href="#lg6" y1="294.607" y2="216.397"/><linearGradient id="SVGID_00000096027264260937205360000003521991362506406797_" gradientUnits="userSpaceOnUse" x1="225.616" x2="394.388" xlink:href="#lg5" y1="197.319" y2="366.091"/><linearGradient id="SVGID_00000037691106915037832540000004754961672368090032_" gradientUnits="userSpaceOnUse" x1="406.606" x2="252.656" xlink:href="#lg5" y1="378.345" y2="224.394"/><linearGradient id="SVGID_00000121994455827934993620000011825874453060692356_" gradientUnits="userSpaceOnUse" x1="318.253" x2="318.253" xlink:href="#lg6" y1="220" y2="174.667"/><linearGradient id="SVGID_00000084520385336835325760000015876917623934705816_" gradientUnits="userSpaceOnUse" x1="318.253" x2="318.253" xlink:href="#lg6" y1="349.543" y2="415.969"/><linearGradient id="SVGID_00000169523064339252546850000005272313641736566204_" gradientUnits="userSpaceOnUse" x1="319.279" x2="402.838" xlink:href="#lg6" y1="330.324" y2="330.324"/><linearGradient id="SVGID_00000018216391167908129220000001907101276400662914_" gradientUnits="userSpaceOnUse" x1="325.734" x2="372.993" xlink:href="#lg6" y1="347.827" y2="395.086"/><linearGradient id="SVGID_00000103229796673322291010000001171426210217420985_" gradientUnits="userSpaceOnUse" x1="347.054" x2="392.084" xlink:href="#lg6" y1="210.449" y2="232.964"/><linearGradient id="lg7"><stop offset="0" stop-color="#eaf9fa"/><stop offset="1" stop-color="#b3dafe"/></linearGradient><linearGradient id="SVGID_00000065795887562456826220000009245108692079252367_" gradientUnits="userSpaceOnUse" x1="233.805" x2="283.042" xlink:href="#lg7" y1="8.753" y2="18.068"/><linearGradient id="SVGID_00000044889448568384779020000016028262537316397973_" gradientUnits="userSpaceOnUse" x1="233.805" x2="283.042" xlink:href="#lg7" y1="493.227" y2="502.542"/><linearGradient id="SVGID_00000096737595111098389830000017496289921388531623_" gradientUnits="userSpaceOnUse" x1="465.517" x2="539.203" xlink:href="#lg7" y1="248.999" y2="262.94"/><linearGradient id="SVGID_00000089537097108991409550000003177970110370337156_" gradientUnits="userSpaceOnUse" x1="-18.957" x2="54.729" xlink:href="#lg7" y1="248.999" y2="262.94"/><linearGradient id="SVGID_00000137109547222610747270000012226631138397664162_" gradientUnits="userSpaceOnUse" x1="400.107" x2="460.924" xlink:href="#lg7" y1="78.76" y2="90.266"/><linearGradient id="SVGID_00000084528602947985091620000008587195336912639914_" gradientUnits="userSpaceOnUse" x1="57.533" x2="118.349" xlink:href="#lg7" y1="421.334" y2="432.84"/><linearGradient id="SVGID_00000143613339292163321740000016509924871561028246_" gradientUnits="userSpaceOnUse" x1="396.635" x2="465.519" xlink:href="#lg7" y1="420.677" y2="433.71"/><linearGradient id="SVGID_00000076579767743949545220000017551028349115066760_" gradientUnits="userSpaceOnUse" x1="54.06" x2="122.944" xlink:href="#lg7" y1="78.103" y2="91.135"/><linearGradient id="SVGID_00000021083010656052625250000017001440858215380147_" gradientUnits="userSpaceOnUse" x1="325.005" x2="374.628" xlink:href="#lg7" y1="26.613" y2="36.001"/><linearGradient id="SVGID_00000005979158652170124210000015354299736589218961_" gradientUnits="userSpaceOnUse" x1="142.273" x2="191.895" xlink:href="#lg7" y1="475.304" y2="484.692"/><linearGradient id="SVGID_00000142168439985613731540000013494921817783735459_" gradientUnits="userSpaceOnUse" x1="447.658" x2="521.269" xlink:href="#lg7" y1="340.371" y2="354.298"/><linearGradient id="SVGID_00000091707544454524945360000005270916201078821279_" gradientUnits="userSpaceOnUse" x1="-1.033" x2="72.578" xlink:href="#lg7" y1="157.639" y2="171.565"/><linearGradient id="SVGID_00000151532849230852074090000004040698518996321678_" gradientUnits="userSpaceOnUse" x1="448.495" x2="517.599" xlink:href="#lg7" y1="155.342" y2="168.415"/><linearGradient id="SVGID_00000176746240167156071800000008701558917235024536_" gradientUnits="userSpaceOnUse" x1="2.011" x2="71.115" xlink:href="#lg7" y1="343.403" y2="356.476"/><linearGradient id="SVGID_00000070799684898569267310000012709725081628729278_" gradientUnits="userSpaceOnUse" x1="322.99" x2="383.482" xlink:href="#lg7" y1="473.316" y2="484.76"/><linearGradient id="SVGID_00000041259312009266980180000002223358286260390040_" gradientUnits="userSpaceOnUse" x1="134.929" x2="195.421" xlink:href="#lg7" y1="26.831" y2="38.276"/><g><g><g><path d="m249.902 126.181h25.299c5.607 0 9.398 5.318 7.652 10.734l-25.918 80.387c-1.684 5.222 1.972 10.35 7.378 10.35h59.015c3.721 0 7.115-2.499 8.274-6.094l35.526-110.189c1.684-5.222-1.972-10.35-7.378-10.35h-20.742c-4.709 0-8.319-3.818-8.062-8.527l4.588-84.255c.446-8.193-10.057-11.345-14.882-4.466l-76.962 109.722c-3.837 5.471-.303 12.688 6.212 12.688z" fill="url(#SVGID_1_)"/><path d="m243.69 113.493c-3.837 5.471-.303 12.688 6.212 12.688h25.299c5.607 0 9.398 5.318 7.652 10.734l-25.918 80.387c-1.684 5.222 1.972 10.35 7.378 10.35h59.015c3.721 0 7.115-2.499 8.274-6.094l35.526-110.189c1.684-5.222-1.972-10.35-7.378-10.35h-20.742c-3.26 0-5.99-1.831-7.279-4.519h-76.12z" fill="url(#SVGID_00000065049633531244675740000006276638005257542552_)"/><path d="m305.259 113.826c-13.005 0-21.221-13.088-15.816-25.197l39.515-88.526c-2.92-.455-6.169.621-8.306 3.668l-76.962 109.722c-3.837 5.471-.303 12.688 6.212 12.688h25.299c5.607 0 9.398 5.318 7.652 10.734l-25.918 80.387c-1.684 5.222 1.972 10.35 7.378 10.35h26.748l30.669-90.303c4.005-11.791-4.21-23.523-16.471-23.523z" fill="url(#SVGID_00000139984123974158161330000017204549204134429866_)"/><path d="m243.69 113.493c-3.837 5.471-.303 12.688 6.212 12.688h25.299c5.607 0 9.398 5.318 7.652 10.734l-25.918 80.387c-1.684 5.222 1.972 10.35 7.378 10.35h59.015c3.721 0 7.115-2.499 8.274-6.094l35.526-110.189c1.684-5.222-1.972-10.35-7.378-10.35h-20.742c-3.26 0-5.99-1.831-7.279-4.519h-76.12z" fill="url(#SVGID_00000135654034055153729810000014283488169631039904_)"/></g><g><path d="m197.227 358.091c-21.708 0-38.18-9.508-42.989-24.814l-55.246-180.21-.087-.351c-.445-1.785-.991-3.977-.991-6.518 0-20.871 25.439-32.414 43.024-32.414 14.284 0 24.773 6.869 28.061 18.376l28.182 103.264 27.982-103.264c3.287-11.507 13.777-18.376 28.061-18.376 17.584 0 43.022 11.543 43.022 32.414 0 2.559-.575 4.856-.995 6.532l-.083.334-54.917 180.103c-4.844 15.415-21.316 24.924-43.024 24.924z" fill="url(#SVGID_00000021113086363410159370000001588358930516044981_)"/><path d="m197.227 358.091c-21.708 0-38.18-9.508-42.989-24.814l-55.246-180.21-.087-.351c-.445-1.785-.991-3.977-.991-6.518 0-20.871 25.439-32.414 43.024-32.414 14.284 0 24.773 6.869 28.061 18.376l28.182 103.264 27.982-103.264c3.287-11.507 13.777-18.376 28.061-18.376 17.584 0 43.022 11.543 43.022 32.414 0 2.559-.575 4.856-.995 6.532l-.083.334-54.917 180.103c-4.844 15.415-21.316 24.924-43.024 24.924z" fill="url(#SVGID_00000096775773723888233960000003618291477948692139_)"/><path d="m195.359 228.749-26.36-96.589c-3.287-11.507-13.777-18.376-28.061-18.376-17.584 0-43.024 11.543-43.024 32.414 0 2.541.546 4.733.991 6.518l.087.351 38.232 124.71h58.135z" fill="url(#SVGID_00000060748091796744900500000018142156985370973324_)"/><g><path d="m175.544 336.407c-21.708 0-38.18-9.508-42.989-24.814l-55.246-180.21-.087-.351c-.445-1.785-.991-3.977-.991-6.518 0-20.871 25.439-32.414 43.024-32.414 14.284 0 24.773 6.869 28.061 18.376l28.182 103.264 27.982-103.264c3.287-11.507 13.777-18.376 28.061-18.376 17.584 0 43.022 11.543 43.022 32.414 0 2.559-.575 4.856-.995 6.532l-.083.334-54.917 180.103c-4.844 15.416-21.316 24.924-43.024 24.924z" fill="url(#SVGID_00000057113997970836642500000015806920934315321014_)"/><path d="m90.372 127.756c-.294-1.179-.589-2.358-.589-3.242 0-10.904 16.798-18.862 29.472-18.862 7.368 0 13.262 2.358 15.03 8.547l41.259 151.187 40.966-151.187c1.768-6.189 7.661-8.547 15.03-8.547 12.672 0 29.47 7.957 29.47 18.862 0 .884-.294 2.063-.589 3.242l-54.817 179.775c-3.241 10.315-16.503 15.325-30.061 15.325-13.557 0-26.819-5.01-30.06-15.325z" fill="url(#SVGID_00000054240736360573612840000005413122556788574339_)"/><path d="m90.372 127.756c-.294-1.179-.589-2.358-.589-3.242 0-10.904 16.798-18.862 29.472-18.862 7.368 0 13.262 2.358 15.03 8.547l41.259 151.187 40.966-151.187c1.768-6.189 7.661-8.547 15.03-8.547 12.672 0 29.47 7.957 29.47 18.862 0 .884-.294 2.063-.589 3.242l-54.817 179.775c-3.241 10.315-16.503 15.325-30.061 15.325-13.557 0-26.819-5.01-30.06-15.325z" fill="url(#SVGID_00000060746110420028530100000006354108058777550472_)"/><path d="m107.786 230.796 24.769 80.797c4.809 15.306 21.281 24.814 42.989 24.814s38.18-9.508 43.024-24.924l24.603-80.687z" fill="url(#SVGID_00000039115694128644015800000002831634996557561478_)"/><path d="m175.544 336.407c21.708 0 38.18-9.508 43.024-24.924l54.917-180.103.083-.334c.42-1.677.995-3.974.995-6.532 0-20.871-25.438-32.414-43.022-32.414-14.284 0-24.773 6.869-28.061 18.376l-27.982 103.264-36.696 108.785c7.753 8.757 20.83 13.882 36.742 13.882z" fill="url(#SVGID_00000162354616598372242350000014251752219237596309_)"/></g></g><g><path d="m302.477 383.819h-25.299c-5.607 0-9.585-5.318-8.029-10.734l23.093-80.387c1.5-5.222-2.336-10.35-7.742-10.35h-59.015c-3.721 0-7.027 2.499-8.059 6.094l-31.654 110.189c-1.5 5.222 2.336 10.35 7.742 10.35h20.742c4.709 0 8.453 3.818 8.362 8.527l-1.628 84.255c-.158 8.193 10.455 11.345 15.039 4.466l73.106-109.722c3.645-5.471-.142-12.688-6.658-12.688z" fill="url(#SVGID_00000089574796802045099470000016331654084707082684_)"/><path d="m247.555 396.174c13.005 0 21.68 13.088 16.701 25.197l-36.404 88.526c2.936.455 6.148-.621 8.177-3.668l73.106-109.722c3.645-5.471-.142-12.688-6.658-12.688h-25.299c-5.607 0-9.585-5.318-8.029-10.734l23.093-80.387c1.5-5.222-2.336-10.35-7.742-10.35h-26.748l-27.496 90.303c-3.59 11.791 5.038 23.523 17.299 23.523z" fill="url(#SVGID_00000127023293062147665490000004647055009865215150_)"/><path d="m247.555 396.174c13.005 0 21.68 13.088 16.701 25.197l-36.404 88.526c2.936.455 6.148-.621 8.177-3.668l73.106-109.722c3.645-5.471-.142-12.688-6.658-12.688h-25.299c-5.607 0-9.585-5.318-8.029-10.734l23.093-80.387c1.5-5.222-2.336-10.35-7.742-10.35h-26.748l-27.496 90.303c-3.59 11.791 5.038 23.523 17.299 23.523z" fill="url(#SVGID_00000008119470289266337330000015393275232772054460_)"/><path d="m221.181 412.641c.936 1.381 1.471 3.056 1.436 4.867l-1.628 84.255c-.158 8.193 10.455 11.345 15.039 4.466l62.356-93.588z" fill="url(#SVGID_00000043455958858245737720000014195892038499010748_)"/></g><g><path d="m349.229 436.399c-44.408 0-81.926-22.737-81.926-49.651 0-14.79 12.319-36.273 31.621-36.273 9.713 0 16.972 5.588 23.375 10.518 7.346 5.655 14.285 10.997 26.056 10.997 4.55 0 16.357-1.319 16.357-7.339 0-7.156-13.617-13.482-28.035-20.179-27.069-12.575-64.141-29.797-64.141-76.937 0-23.956 9.945-43.403 28.76-56.239 14.936-10.189 35.366-15.8 57.526-15.8 6.393 0 22.889.462 37.949 4.739 27.638 7.851 31.765 23.854 31.765 32.696 0 14.395-9.495 35.696-29.876 35.696-7.059 0-12.385-2.76-17.084-5.195-5.556-2.879-11.3-5.855-22.753-5.855-11.752 0-17.226 3.339-17.226 5.596 0 3.511 15.346 10.276 23.591 13.91 27.309 12.039 68.582 30.232 68.582 82.913-.001 46.414-33.184 76.403-84.541 76.403z" fill="url(#SVGID_00000066478508794989202240000008249614220919970947_)"/><path d="m349.229 436.399c-44.408 0-81.926-22.737-81.926-49.651 0-14.79 12.319-36.273 31.621-36.273 9.713 0 16.972 5.588 23.375 10.518 7.346 5.655 14.285 10.997 26.056 10.997 4.55 0 16.357-1.319 16.357-7.339 0-7.156-13.617-13.482-28.035-20.179-27.069-12.575-64.141-29.797-64.141-76.937 0-23.956 9.945-43.403 28.76-56.239 14.936-10.189 35.366-15.8 57.526-15.8 6.393 0 22.889.462 37.949 4.739 27.638 7.851 31.765 23.854 31.765 32.696 0 14.395-9.495 35.696-29.876 35.696-7.059 0-12.385-2.76-17.084-5.195-5.556-2.879-11.3-5.855-22.753-5.855-11.752 0-17.226 3.339-17.226 5.596 0 3.511 15.346 10.276 23.591 13.91 27.309 12.039 68.582 30.232 68.582 82.913-.001 46.414-33.184 76.403-84.541 76.403z" fill="url(#SVGID_00000120559249653582204980000010029673181613390998_)"/><path d="m396.771 200.236c-15.06-4.278-31.556-4.739-37.949-4.739-22.16 0-42.589 5.611-57.526 15.8-18.815 12.835-28.76 32.283-28.76 56.239 0 2.734.137 5.358.378 7.896h88.544c-8.431-3.773-19.861-9.226-19.861-12.257 0-2.257 5.475-5.596 17.226-5.596 11.453 0 17.198 2.976 22.753 5.855 4.699 2.435 10.025 5.195 17.084 5.195 20.381 0 29.876-21.3 29.876-35.696 0-8.843-4.127-24.846-31.765-32.697z" fill="url(#SVGID_00000107567712352358577830000016254953377075849635_)"/><g><path d="m316.946 413.014c-44.408 0-81.926-22.737-81.926-49.651 0-14.79 12.319-36.273 31.621-36.273 9.713 0 16.972 5.588 23.375 10.518 7.346 5.655 14.285 10.997 26.056 10.997 4.55 0 16.357-1.319 16.357-7.339 0-7.156-13.617-13.482-28.035-20.179-27.069-12.575-64.141-29.797-64.141-76.937 0-23.956 9.945-43.403 28.76-56.239 14.936-10.189 35.366-15.8 57.526-15.8 6.392 0 22.889.462 37.949 4.739 27.638 7.851 31.765 23.854 31.765 32.696 0 14.395-9.495 35.696-29.876 35.696-7.059 0-12.385-2.76-17.084-5.195-5.556-2.879-11.3-5.855-22.753-5.855-11.752 0-17.226 3.339-17.226 5.596 0 3.511 15.346 10.276 23.591 13.91 27.309 12.039 68.582 30.232 68.582 82.913-.002 46.414-33.185 76.403-84.541 76.403z" fill="url(#SVGID_00000096027264260937205360000003521991362506406797_)"/><path d="m297.463 239.789c0-9.015 8.432-17.446 29.076-17.446 23.843 0 29.369 11.05 39.837 11.05 12.793 0 18.026-15.994 18.026-23.846 0-22.677-42.452-25.585-57.863-25.585-36.345 0-74.436 16.574-74.436 60.188 0 68.04 92.176 61.934 92.176 97.116 0 13.955-14.831 19.189-28.207 19.189-27.041 0-35.763-21.514-49.431-21.514-11.047 0-19.772 14.538-19.772 24.423 0 19.192 31.985 37.801 70.076 37.801 42.162 0 72.691-22.68 72.691-64.552 0-73.274-92.173-67.748-92.173-96.824z" fill="url(#SVGID_00000037691106915037832540000004754961672368090032_)"/><path d="m297.463 239.789c0-9.015 8.432-17.446 29.076-17.446 23.843 0 29.369 11.05 39.837 11.05 12.793 0 18.026-15.994 18.026-23.846 0-22.677-42.452-25.585-57.863-25.585-36.345 0-74.436 16.574-74.436 60.188 0 68.04 92.176 61.934 92.176 97.116 0 13.955-14.831 19.189-28.207 19.189-27.041 0-35.763-21.514-49.431-21.514-11.047 0-19.772 14.538-19.772 24.423 0 19.192 31.985 37.801 70.076 37.801 42.162 0 72.691-22.68 72.691-64.552 0-73.274-92.173-67.748-92.173-96.824z" fill="url(#SVGID_00000121994455827934993620000011825874453060692356_)"/><path d="m304.394 321.087c14.418 6.697 28.035 13.023 28.035 20.179 0 6.02-11.807 7.339-16.357 7.339-11.771 0-18.71-5.342-26.056-10.997-6.403-4.93-13.662-10.518-23.375-10.518-19.303 0-31.621 21.483-31.621 36.273 0 26.914 37.517 49.651 81.926 49.651 51.356 0 84.54-29.989 84.54-76.402 0-52.681-41.272-70.875-68.582-82.913-3.625-1.598-8.621-3.8-13.084-6.066h-79.481c1.787 44.506 37.667 61.195 64.055 73.454z" fill="url(#SVGID_00000084520385336835325760000015876917623934705816_)"/><path d="m304.394 321.087c14.418 6.697 28.035 13.023 28.035 20.179 0 6.02-11.807 7.339-16.357 7.339-11.771 0-18.71-5.342-26.056-10.997-6.403-4.93-13.662-10.518-23.375-10.518-19.303 0-31.621 21.483-31.621 36.273 0 26.914 37.517 49.651 81.926 49.651 51.356 0 84.54-29.989 84.54-76.402 0-52.681-41.272-70.875-68.582-82.913-3.625-1.598-8.621-3.8-13.084-6.066h-79.481c1.787 44.506 37.667 61.195 64.055 73.454z" fill="url(#SVGID_00000169523064339252546850000005272313641736566204_)"/><path d="m304.394 321.087c14.418 6.697 28.035 13.023 28.035 20.179 0 6.02-11.807 7.339-16.357 7.339-11.771 0-18.71-5.342-26.056-10.997-6.403-4.93-13.662-10.518-23.375-10.518-19.303 0-31.621 21.483-31.621 36.273 0 26.914 37.517 49.651 81.926 49.651 51.356 0 84.54-29.989 84.54-76.402 0-52.681-41.272-70.875-68.582-82.913-3.625-1.598-8.621-3.8-13.084-6.066h-79.481c1.787 44.506 37.667 61.195 64.055 73.454z" fill="url(#SVGID_00000018216391167908129220000001907101276400662914_)"/><path d="m312.169 236.762c2.732-1.411 7.457-2.569 14.37-2.569 11.453 0 17.197 2.976 22.753 5.855 4.699 2.435 10.025 5.195 17.084 5.195 20.381 0 29.876-21.3 29.876-35.696 0-8.841-4.127-24.845-31.765-32.696-15.06-4.278-31.556-4.739-37.949-4.739-4.89 0-9.689.289-14.37.824v63.826z" fill="url(#SVGID_00000103229796673322291010000001171426210217420985_)"/></g></g></g><g><path d="m255 0c-4.134 0-7.485 3.351-7.485 7.485v10.555c0 4.134 3.351 7.485 7.485 7.485s7.485-3.351 7.485-7.485v-10.555c0-4.134-3.351-7.485-7.485-7.485z" fill="url(#SVGID_00000065795887562456826220000009245108692079252367_)"/><path d="m255 484.474c-4.134 0-7.485 3.351-7.485 7.485v10.555c0 4.134 3.351 7.485 7.485 7.485s7.485-3.351 7.485-7.485v-10.555c0-4.134-3.351-7.485-7.485-7.485z" fill="url(#SVGID_00000044889448568384779020000016028262537316397973_)"/><path d="m502.515 247.515h-10.555c-4.134 0-7.485 3.351-7.485 7.485s3.351 7.485 7.485 7.485h10.555c4.134 0 7.485-3.351 7.485-7.485s-3.351-7.485-7.485-7.485z" fill="url(#SVGID_00000096737595111098389830000017496289921388531623_)"/><path d="m25.526 255c0-4.134-3.351-7.485-7.485-7.485h-10.556c-4.134 0-7.485 3.351-7.485 7.485s3.351 7.485 7.485 7.485h10.555c4.135 0 7.486-3.351 7.486-7.485z" fill="url(#SVGID_00000089537097108991409550000003177970110370337156_)"/><path d="m424.726 74.688-7.464 7.464c-2.924 2.924-2.924 7.662 0 10.586 2.923 2.924 7.662 2.924 10.586 0l7.464-7.464c2.923-2.924 2.923-7.662 0-10.586s-7.662-2.924-10.586 0z" fill="url(#SVGID_00000137109547222610747270000012226631138397664162_)"/><path d="m82.152 417.263-7.464 7.464c-2.923 2.924-2.923 7.662 0 10.586s7.662 2.923 10.586 0l7.464-7.464c2.924-2.923 2.924-7.662 0-10.586s-7.663-2.924-10.586 0z" fill="url(#SVGID_00000084528602947985091620000008587195336912639914_)"/><path d="m427.848 417.263c-2.923-2.924-7.662-2.924-10.586 0-2.924 2.923-2.924 7.662 0 10.586l7.464 7.464c2.923 2.923 7.662 2.923 10.586 0s2.923-7.662 0-10.586z" fill="url(#SVGID_00000143613339292163321740000016509924871561028246_)"/><path d="m85.274 74.688c-2.923-2.923-7.662-2.923-10.586 0s-2.923 7.662 0 10.586l7.464 7.464c2.923 2.924 7.662 2.924 10.586 0 2.924-2.923 2.924-7.662 0-10.586z" fill="url(#SVGID_00000076579767743949545220000017551028349115066760_)"/><path d="m351.308 38.366 3.981-9.776c1.559-3.829-.28-8.196-4.109-9.756-3.829-1.559-8.196.28-9.756 4.109l-3.981 9.776c-1.559 3.829.28 8.196 4.109 9.756 3.83 1.559 8.197-.28 9.756-4.109z" fill="url(#SVGID_00000021083010656052625250000017001440858215380147_)"/><path d="m168.448 467.525c-3.829-1.559-8.196.28-9.756 4.109l-3.981 9.776c-1.559 3.829.28 8.196 4.109 9.756 3.829 1.559 8.196-.28 9.756-4.109l3.981-9.776c1.559-3.829-.28-8.196-4.109-9.756z" fill="url(#SVGID_00000005979158652170124210000015354299736589218961_)"/><path d="m487.057 341.425-9.776-3.981c-3.829-1.559-8.196.28-9.756 4.109-1.559 3.829.28 8.196 4.109 9.756l9.776 3.981c3.829 1.559 8.196-.28 9.756-4.109 1.559-3.83-.28-8.197-4.109-9.756z" fill="url(#SVGID_00000142168439985613731540000013494921817783735459_)"/><path d="m22.943 168.575 9.776 3.981c3.829 1.559 8.196-.28 9.756-4.109 1.559-3.829-.28-8.196-4.109-9.756l-9.776-3.981c-3.829-1.559-8.196.28-9.756 4.109-1.559 3.83.28 8.197 4.109 9.756z" fill="url(#SVGID_00000091707544454524945360000005270916201078821279_)"/><path d="m476.284 169.916 9.728-4.097c3.81-1.605 5.598-5.994 3.993-9.804s-5.994-5.598-9.804-3.993l-9.728 4.097c-3.81 1.605-5.598 5.994-3.993 9.804 1.605 3.811 5.993 5.598 9.804 3.993z" fill="url(#SVGID_00000151532849230852074090000004040698518996321678_)"/><path d="m33.716 340.083-9.728 4.097c-3.81 1.605-5.598 5.994-3.993 9.804s5.994 5.598 9.804 3.993l9.728-4.097c3.81-1.605 5.598-5.994 3.993-9.804s-5.993-5.597-9.804-3.993z" fill="url(#SVGID_00000176746240167156071800000008701558917235024536_)"/><path d="m353.88 470.473c-1.605-3.81-5.994-5.598-9.804-3.993s-5.598 5.994-3.993 9.804l4.097 9.728c1.605 3.81 5.994 5.598 9.804 3.993s5.598-5.994 3.993-9.804z" fill="url(#SVGID_00000070799684898569267310000012709725081628729278_)"/><path d="m165.924 43.52c3.81-1.605 5.598-5.994 3.993-9.804l-4.097-9.728c-1.605-3.81-5.994-5.598-9.804-3.993s-5.598 5.994-3.993 9.804l4.097 9.728c1.605 3.811 5.994 5.598 9.804 3.993z" fill="url(#SVGID_00000041259312009266980180000002223358286260390040_)"/></g></g></svg>





