<svg height="512" viewBox="0 0 128 128" width="512" xmlns="http://www.w3.org/2000/svg"><g id="_x30_3_soccer_stadium"><g><path d="m122.394043 23.0810547-14-6c-.309082-.1337891-.6640625-.1015625-.9443359.0839844-.2807618.1855468-.4497071.4990234-.4497071.8349609v12c0 .3359375.1689453.6494141.449707.8349609.1655274.109375.3574219.1650391.550293.1650391.1333008 0 .2675781-.0263672.394043-.0810547l14-6c.3676758-.1572265.605957-.5185547.605957-.9189453s-.2382812-.7617187-.605957-.9189453z" fill="#ef5350"/><path d="m34.394043 23.0810547-14-6c-.309082-.1337891-.6635742-.1015625-.9443359.0839844s-.4497071.4990234-.4497071.8349609v12c0 .3359375.1689453.6494141.449707.8349609.1655274.109375.3574219.1650391.550293.1650391.1333008 0 .2675781-.0263672.394043-.0810547l14-6c.3676758-.1572265.605957-.5185547.605957-.9189453s-.2382812-.7617187-.605957-.9189453z" fill="#ef5350"/><path d="m64 77c-34.2055664 0-61 9.2246094-61 21s26.7944336 21 61 21 61-9.2246094 61-21-26.7944336-21-61-21z" fill="#43a047"/><path d="m64 37c-34.2055664 0-61 9.2246094-61 21s26.7944336 21 61 21 61-9.2246094 61-21-26.7944336-21-61-21z" fill="#ffca28"/><path d="m124.0742188 57.0029297c-.5170898-.046875-.9858398.3310547-1.0629883.8486328l-.2929688 1.9511719c-3.0195312 9.6484375-28.7709961 17.1972656-58.7182617 17.1972656s-55.6987305-7.5488281-58.7182617-17.1972656l-.2929688-1.9511719c-.0771484-.5175781-.5512695-.8955078-1.0629882-.8486328-.5219727.0390625-.9257813.4736328-.9257813.9970703 0 .7490234.109375 1.5029297.3251953 2.2421875l5.6767578 37.8447266c.2250977 5.3066406 21.0649414 14.9130859 54.9980469 14.9130859s54.7729492-9.6064453 54.9980469-14.9130859l5.6767578-37.8447266c.2158203-.7392578.3251953-1.4931641.3251953-2.2421875 0-.5234375-.4038086-.9580078-.9257812-.9970703z" fill="#ffb300"/><g><path d="m65 37.0097656v32.4902344c0 .5498047-.4501953 1-1 1s-1-.4501953-1-1v-32.4902344c.3300781-.0097656.6699219-.0097656 1-.0097656s.6699219 0 1 .0097656z" fill="#ffb300"/></g><g><path d="m110.9799805 44.4599609-27.5698242 27.5703125c-.2001953.1894531-.4501953.2900391-.7099609.2900391-.2602539 0-.5102539-.1005859-.7099609-.2900391-.3901367-.390625-.3901367-1.0302734 0-1.4199219l26.949707-26.9501953c.7001952.2597657 1.3798827.5195313 2.040039.7998047z" fill="#ffb300"/></g><g><path d="m46.0097656 72.0302734c-.199707.1894531-.449707.2900391-.7099609.2900391-.2597656 0-.5097656-.1005859-.7099609-.2900391l-27.5698243-27.5703125c.6601563-.2802734 1.3398438-.5400391 2.0400391-.7998047l26.949707 26.9501953c.3901367.3896485.3901367 1.0292969 0 1.4199219z" fill="#ffb300"/></g><g><path d="m20 45c-.5522461 0-1-.4472656-1-1v-26c0-.5527344.4477539-1 1-1s1 .4472656 1 1v26c0 .5527344-.4477539 1-1 1z" fill="#607d8b"/></g><g><path d="m108 45c-.5522461 0-1-.4472656-1-1v-26c0-.5527344.4477539-1 1-1s1 .4472656 1 1v26c0 .5527344-.4477539 1-1 1z" fill="#607d8b"/></g><g><path d="m54 39.2792969c-.5522461 0-1-.4472656-1-1v-8.2792969c0-.5527344.4477539-1 1-1s1 .4472656 1 1v8.2792969c0 .5527344-.4477539 1-1 1z" fill="#607d8b"/></g><g><path d="m74 39.2792969c-.5522461 0-1-.4472656-1-1v-8.2792969c0-.5527344.4477539-1 1-1s1 .4472656 1 1v8.2792969c0 .5527344-.4477539 1-1 1z" fill="#607d8b"/></g><path d="m104.8662109 71.8369141c-10.3813476-4.3447266-25.2763671-6.8369141-40.8662109-6.8369141s-30.4848633 2.4921875-40.8662109 6.8369141l-2.5585938 1.0712891 2.6533203.8085938c11.1860352 3.4072264 25.6655274 5.283203 40.7714844 5.283203s29.5854492-1.8759766 40.7714844-5.2832031l2.6533203-.8085938z" fill="#66bb6a"/><g><path d="m64 79c-34.2055664 0-61-9.2246094-61-21s26.7944336-21 61-21 61 9.2246094 61 21-26.7944336 21-61 21zm0-40c-31.9814453 0-59 8.7011719-59 19s27.0185547 19 59 19 59-8.7011719 59-19-27.0185547-19-59-19z" fill="#ffb300"/></g><g><path d="m58.0004883 88.9003906c-.0112305 0-.0229492 0-.034668-.0009766-4.0908203-.1386719-8.1513672-.4160156-12.0693359-.8251953-.5493164-.0566406-.9482422-.5488281-.8911133-1.0976563.0571289-.5498047.543457-.9580078 1.0981445-.890625 3.8720703.4033203 7.8862305.6777344 11.9306641.8154297.5517578.0185547.9838867.4814453.965332 1.0332031-.0185547.5400392-.4624023.9658204-.9990234.9658204z" fill="#607d8b"/></g><g><path d="m93.9990234 86.3007813c-.472168 0-.8920898-.3349609-.9819336-.8154297-.1015625-.5429688.2558594-1.0654297.7988281-1.1679688 4.3217773-.8085938 8.3154297-1.8144531 11.8706055-2.9873047.5249023-.1796875 1.090332.1123047 1.2631836.6357422.1728516.5244141-.1118164 1.0898438-.6362305 1.2626953-3.6396484 1.2011719-7.7202148 2.2294922-12.1293945 3.0546875-.0620117.0117188-.1240234.0175782-.1850586.0175782z" fill="#607d8b"/></g><g><path d="m69.9995117 88.9003906c-.5366211 0-.9804688-.4257813-.9990234-.9658203-.0185547-.5517578.4135742-1.0146484.965332-1.0332031 4.0444336-.1376953 8.0585938-.4121094 11.9306641-.8154297.5581055-.0595703 1.0405273.3408203 1.0981445.890625.0571289.5488281-.3417969 1.0410156-.8911133 1.0976563-3.9179688.4091797-7.9785156.6865234-12.0693359.8251953-.0117188.0009765-.0234375.0009765-.034668.0009765z" fill="#607d8b"/></g><g><path d="m34.0009766 86.3007813c-.0610352 0-.1230469-.0058594-.1850586-.0175781-4.4091797-.8251953-8.4897461-1.8535156-12.1293945-3.0546875-.5244141-.1728516-.809082-.7382813-.6362305-1.2626953.1728516-.5234375.7368164-.8154297 1.2631836-.6357422 3.5551758 1.1728516 7.5488281 2.1787109 11.8706055 2.9873047.5429688.1025391.9003906.625.7988281 1.1679688-.0898438.4804686-.5097657.8154296-.9819336.8154296z" fill="#607d8b"/></g><g><path d="m93.9990234 100.4003906c-.472168 0-.8920898-.3349609-.9819336-.8154297-.1015625-.5429688.2558594-1.0654297.7988281-1.1679688 4.3217773-.8085938 8.3154297-1.8144531 11.8706055-2.9873047.5249023-.1787109 1.090332.1123047 1.2631836.6357422.1728516.5244141-.1118164 1.0898438-.6362305 1.2626953-3.6396484 1.2011719-7.7202148 2.2294922-12.1293945 3.0546875-.0620117.0117189-.1240234.0175782-.1850586.0175782z" fill="#607d8b"/></g><g><path d="m34.0009766 100.4003906c-.0610352 0-.1230469-.0058594-.1850586-.0175781-4.4091797-.8251953-8.4897461-1.8535156-12.1293945-3.0546875-.5244141-.1728516-.809082-.7382813-.6362305-1.2626953.1728516-.5234375.7368164-.8144531 1.2631836-.6357422 3.5551758 1.1728516 7.5488281 2.1787109 11.8706055 2.9873047.5429688.1025391.9003906.625.7988281 1.1679688-.0898438.4804687-.5097657.8154296-.9819336.8154296z" fill="#607d8b"/></g><path d="m77 96v16.5097656c-3.7797852.2900391-7.7900391.4599609-12 .4804688-.3300781.0097656-.6601562.0097656-1 .0097656s-.6699219 0-1-.0097656c-4.2099609-.0205078-8.2202148-.1904297-12-.4804688v-16.5097656c0-.5498047.4501953-1 1-1h24c.5498047 0 1 .4501953 1 1z" fill="#42a5f5"/><g><path d="m65 95v17.9902344c-.3300781.0097656-.6601562.0097656-1 .0097656s-.6699219 0-1-.0097656v-17.9902344z" fill="#1e88e5"/></g><g><path d="m10.8300781 77.2900391c-.2001953.2802734-.5102539.4296875-.8300781.4296875-.2001953 0-.3901367-.0595703-.5600586-.1796875-1.5600586-1.0703125-2.9199219-2.2597657-4.0498047-3.5400391l-.6699219-4.4902344c1.2197266 2.4003906 3.2197266 4.5800781 5.8398438 6.3798828.4599609.3203125.5800781.9404297.2700195 1.4003907z" fill="#607d8b"/></g><g><path d="m123.2797852 69.5097656-.6699219 4.4902344c-1.1298828 1.2802734-2.4897461 2.4697266-4.0498047 3.5400391-.1699219.1201172-.3598633.1796875-.5600586.1796875-.3198242 0-.6298828-.1494141-.8300781-.4296875-.3100586-.4599609-.1899414-1.0800781.2700195-1.4003906 2.6201172-1.7998047 4.6201172-3.9794922 5.8398438-6.3798829z" fill="#607d8b"/></g><path d="m82 9h-36c-.5522461 0-1 .4472656-1 1v20c0 .5527344.4477539 1 1 1h36c.5522461 0 1-.4472656 1-1v-20c0-.5527344-.4477539-1-1-1z" fill="#66bb6a"/><g><path d="m54 15h-4c-.5522461 0-1-.4472656-1-1s.4477539-1 1-1h4c.5522461 0 1 .4472656 1 1s-.4477539 1-1 1z" fill="#a5d6a7"/></g><g><path d="m68 15h-8c-.5522461 0-1-.4472656-1-1s.4477539-1 1-1h8c.5522461 0 1 .4472656 1 1s-.4477539 1-1 1z" fill="#a5d6a7"/></g></g></g></svg>
