<?xml version="1.0" encoding="UTF-8" standalone="no"?>
<!-- Created with Inkscape (http://www.inkscape.org/) -->

<svg
   version="1.1"
   id="svg1089"
   xml:space="preserve"
   width="682.66669"
   height="682.66669"
   viewBox="0 0 682.66669 682.66669"
   xmlns="http://www.w3.org/2000/svg"
   xmlns:svg="http://www.w3.org/2000/svg"><defs
     id="defs1093"><clipPath
       clipPathUnits="userSpaceOnUse"
       id="clipPath1103"><path
         d="M 0,512 H 512 V 0 H 0 Z"
         id="path1101" /></clipPath></defs><g
     id="g1095"
     transform="matrix(1.3333333,0,0,-1.3333333,0,682.66667)"><g
       id="g1097"><g
         id="g1099"
         clip-path="url(#clipPath1103)"><g
           id="g1105"
           transform="translate(20,332.0356)"><path
             d="M 0,0 213.004,152.733 C 219.508,157.312 227.44,160 236,160 c 8.56,0 16.492,-2.688 22.996,-7.267 L 472,0"
             style="fill:none;stroke:gray;stroke-width:40;stroke-linecap:round;stroke-linejoin:round;stroke-miterlimit:10;stroke-dasharray:none;stroke-opacity:1"
             id="path1107" /></g><g
           id="g1109"
           transform="translate(278.9956,384.77)"><path
             d="M 0,0 C -6.504,4.578 -14.436,7.266 -22.996,7.266 -31.555,7.266 -39.487,4.578 -45.991,0 l -156.027,-112.631 c -10.644,-7.492 -16.978,-19.694 -16.978,-32.71 v -179.393 c 0,-22.092 17.909,-40 40,-40 h 116 v 80 c 0,22.091 17.909,40 40,40 22.092,0 40,-17.909 40,-40 v -80 h 116 c 22.092,0 40,17.908 40,40 v 179.393 c 0,13.016 -6.333,25.218 -16.977,32.71 z"
             style="fill:none;stroke:gray;stroke-width:40;stroke-linecap:round;stroke-linejoin:round;stroke-miterlimit:10;stroke-dasharray:none;stroke-opacity:1"
             id="path1111" /></g></g></g></g></svg>
