<svg id="fi_2817856" enable-background="new 0 0 512 512" height="512" viewBox="0 0 512 512" width="512" xmlns="http://www.w3.org/2000/svg"><g><path d="m309.977 93.481h-29.609c-.218 0-.409-.139-.477-.345l-9.149-28.16c-2.113-6.506-7.9-10.71-14.741-10.71s-12.628 4.204-14.741 10.71l-9.149 28.16c-.067.207-.259.346-.477.346h-29.609c-6.841 0-12.627 4.204-14.741 10.71s.097 13.308 5.631 17.329l23.955 17.404c.176.128.248.353.182.559l-9.15 28.161c-2.114 6.506.097 13.309 5.631 17.33 2.768 2.01 5.938 3.016 9.11 3.016s6.344-1.005 9.11-3.016l23.955-17.405c.176-.127.412-.127.588 0l23.955 17.404c5.535 4.021 12.688 4.022 18.221 0 5.534-4.021 7.745-10.823 5.631-17.33l-9.149-28.158c-.067-.208.005-.433.181-.561l23.955-17.405c5.534-4.021 7.745-10.823 5.631-17.329-2.117-6.506-7.904-10.71-14.744-10.71zm.294 15.905-23.955 17.404c-5.448 3.958-7.712 10.922-5.631 17.33l9.15 28.16c.07.216.112.346-.182.56-.293.212-.404.133-.588 0l-23.955-17.404c-5.448-3.959-12.772-3.959-18.221 0l-23.955 17.405c-.184.133-.295.212-.588 0-.294-.214-.252-.344-.182-.559l9.151-28.162c2.08-6.406-.184-13.37-5.632-17.329l-23.955-17.404c-.183-.133-.294-.213-.182-.559s.249-.346.476-.346h29.609c6.736 0 12.66-4.304 14.742-10.71l9.149-28.16c.07-.215.112-.345.476-.345s.405.13.476.345l9.149 28.161c2.082 6.406 8.006 10.71 14.742 10.71h29.609c.227 0 .363 0 .476.346s.003.423-.179.557zm136.029-81.506h-46.683v-10.38c0-9.649-7.851-17.5-17.5-17.5h-252.234c-9.649 0-17.5 7.851-17.5 17.5v10.38h-46.683c-12.406 0-22.5 10.093-22.5 22.5v46.19c0 25.489 7.199 50.354 20.82 71.907 13.621 21.556 32.993 38.731 56.021 49.668l67.101 31.881c2.946 3.461 5.967 6.866 9.072 10.209-4.651 3.149-7.714 8.474-7.714 14.501v25c0 9.649 7.851 17.5 17.5 17.5h11v38.764h-46.5c-20.678 0-37.5 16.822-37.5 37.5v55.5h-12.5c-9.649 0-17.5 7.851-17.5 17.5v28c0 9.649 7.851 17.5 17.5 17.5h271c9.649 0 17.5-7.851 17.5-17.5v-28c0-9.649-7.851-17.5-17.5-17.5h-243.5v-55.5c0-12.407 10.094-22.5 22.5-22.5h171c12.406 0 22.5 10.093 22.5 22.5v33c0 4.142 3.357 7.5 7.5 7.5s7.5-3.358 7.5-7.5v-33c0-20.678-16.822-37.5-37.5-37.5h-46.5v-38.765h11c9.649 0 17.5-7.851 17.5-17.5v-25c0-6.027-3.063-11.352-7.714-14.501 3.105-3.342 6.126-6.748 9.072-10.209l67.1-31.881c23.028-10.938 42.4-28.112 56.021-49.668 13.621-21.553 20.82-46.418 20.82-71.907v-46.189c.001-12.407-10.093-22.5-22.499-22.5zm-54.8 436.12c1.379 0 2.5 1.122 2.5 2.5v28c0 1.378-1.121 2.5-2.5 2.5h-271c-1.379 0-2.5-1.122-2.5-2.5v-28c0-1.378 1.121-2.5 2.5-2.5zm7.013-391.12h25.287v23.69c0 34.396-20.077 66.161-51.147 80.926l-2.061.979c1.64-3.55 3.237-7.125 4.751-10.749 12.719-30.44 20.464-62.244 23.17-94.846zm-272.035 131.715c-20.461-9.718-37.674-24.978-49.777-44.132-12.103-19.151-18.5-41.246-18.5-63.894v-46.189c0-4.136 3.364-7.5 7.5-7.5h46.683c-.03 4.94.044 10.091.221 15h-31.905c-4.143 0-7.5 3.358-7.5 7.5v31.19c0 32.813 15.773 64.183 42.194 83.912 3.292 2.458 8.002 1.82 10.497-1.522 2.478-3.319 1.797-8.019-1.522-10.497-22.647-16.912-36.169-43.788-36.169-71.893v-23.69h25.287c2.706 32.603 10.451 64.406 23.17 94.846 8.307 19.88 18.525 38.655 30.536 56.214zm153.522 151.405h-48v-38.765h48zm28.5-56.265c0 1.378-1.121 2.5-2.5 2.5h-100c-1.379 0-2.5-1.122-2.5-2.5v-25c0-1.378 1.121-2.5 2.5-2.5h100c1.379 0 2.5 1.122 2.5 2.5zm-10.632-42.5h-83.735c-27.198-27.399-48.674-59.487-63.634-95.292-15.338-36.709-23.115-75.495-23.115-115.279v-29.164c0-1.378 1.121-2.5 2.5-2.5h252.234c1.379 0 2.5 1.122 2.5 2.5v29.164c0 39.785-7.777 78.57-23.115 115.279-14.89 35.635-36.435 67.915-63.635 95.292zm155.932-160.665c0 22.648-6.397 44.742-18.5 63.894-12.104 19.153-29.316 34.414-49.778 44.132l-40.715 19.345c5.214-7.623 10.084-15.477 14.61-23.551l19.672-9.345c36.273-17.237 59.711-54.32 59.711-94.474v-31.191c0-4.142-3.357-7.5-7.5-7.5h-31.903c.131-3.731.221-7.468.221-11.216v-3.784h46.682c4.136 0 7.5 3.364 7.5 7.5z"></path></g></svg>