<svg id="Layer_3" height="512" viewBox="0 0 64 64" width="512" xmlns="http://www.w3.org/2000/svg" data-name="Layer 3"><path d="m55 25a3.944 3.944 0 0 0 -1.017-2.65 2.878 2.878 0 0 1 -.556-2.93 3.97 3.97 0 0 0 -2.088-5.009 3.2 3.2 0 0 1 -1.91-2.915 3.973 3.973 0 0 0 -3.759-3.914 2.878 2.878 0 0 1 -2.465-1.682 3.969 3.969 0 0 0 -5.042-2.056 3.137 3.137 0 0 1 -3.369-.7 3.972 3.972 0 0 0 -5.444-.128 2.88 2.88 0 0 1 -2.931.556 3.969 3.969 0 0 0 -5.008 2.088 3.2 3.2 0 0 1 -2.911 1.911 3.973 3.973 0 0 0 -3.914 3.759 2.878 2.878 0 0 1 -1.686 2.47 3.969 3.969 0 0 0 -2.056 5.042 3.137 3.137 0 0 1 -.7 3.369 3.972 3.972 0 0 0 -.128 5.444 2.878 2.878 0 0 1 .556 2.93 3.97 3.97 0 0 0 2.088 5.009 3.2 3.2 0 0 1 1.91 2.915 3.973 3.973 0 0 0 3.759 3.914 2.878 2.878 0 0 1 2.471 1.677 3.969 3.969 0 0 0 5.042 2.056 3.137 3.137 0 0 1 3.369.7 3.972 3.972 0 0 0 5.444.128 2.88 2.88 0 0 1 2.931-.556 3.969 3.969 0 0 0 5.008-2.088 3.2 3.2 0 0 1 2.915-1.91 3.973 3.973 0 0 0 3.914-3.759 2.878 2.878 0 0 1 1.677-2.466 3.969 3.969 0 0 0 2.056-5.042 3.137 3.137 0 0 1 .7-3.369 3.965 3.965 0 0 0 1.144-2.794z" fill="#f2c351"/><path d="m39.577 9.5a44.922 44.922 0 0 0 -.4-5.881 3.983 3.983 0 0 0 -1.016.228 3.137 3.137 0 0 1 -3.369-.7 3.972 3.972 0 0 0 -5.444-.128 2.88 2.88 0 0 1 -2.931.556 3.969 3.969 0 0 0 -5.008 2.088 3.2 3.2 0 0 1 -2.909 1.908 3.973 3.973 0 0 0 -3.914 3.759 2.878 2.878 0 0 1 -1.686 2.47 3.969 3.969 0 0 0 -2.056 5.042 3.137 3.137 0 0 1 -.7 3.369 3.97 3.97 0 0 0 -.127 5.444 2.88 2.88 0 0 1 .555 2.93 3.97 3.97 0 0 0 2.088 5.009 3.2 3.2 0 0 1 1.91 2.915 3.973 3.973 0 0 0 3.759 3.914 2.878 2.878 0 0 1 2.471 1.677 3.952 3.952 0 0 0 .791 1.145 44.431 44.431 0 0 0 17.986-35.745z" fill="#f7d881"/><circle cx="32" cy="25" fill="#e7e4dd" r="17"/><path d="m32 8a16.992 16.992 0 0 0 -5.549 33.055 44.357 44.357 0 0 0 13.119-31.255 16.9 16.9 0 0 0 -7.57-1.8z" fill="#f4f3f2"/><path d="m59 43 3 3-13 3-3 13-3-3 3-13z" fill="#c16b3f"/><path d="m43 59 3-13 13-3-7.2-7.2a3.976 3.976 0 0 1 -.7.408 2.878 2.878 0 0 0 -1.679 2.465 3.973 3.973 0 0 1 -3.921 3.756 3.2 3.2 0 0 0 -2.915 1.91 3.969 3.969 0 0 1 -5.008 2.088 2.88 2.88 0 0 0 -2.931.556 3.944 3.944 0 0 1 -2.646 1.017z" fill="#e39854"/><path d="m21 59-3-13-13-3-3 3 13 3 3 13z" fill="#c16b3f"/><path d="m32 48-11 11-3-13-13-3 7.493-7.493c.056.029.112.056.169.081a3.2 3.2 0 0 1 1.91 2.915 3.973 3.973 0 0 0 3.759 3.914 2.878 2.878 0 0 1 2.469 1.683 3.969 3.969 0 0 0 5.042 2.056 3.137 3.137 0 0 1 3.369.7 3.965 3.965 0 0 0 2.789 1.144z" fill="#e39854"/><path d="m32 30 7 5-2-8 6-5h-8l-3-9-3 9h-8l6 5-2 8z" fill="#f2c351"/><path d="m35 22-3-9-3 9h-8l6 5-2 8 7-5 1.854 1.324a44.206 44.206 0 0 0 3.931-9.324z" fill="#f7d881"/><path d="m20.8 44.1a2.878 2.878 0 0 0 -2.465-1.679 3.973 3.973 0 0 1 -3.764-3.921 3.2 3.2 0 0 0 -1.91-2.915c-.057-.025-.113-.052-.169-.081l-7.492 7.496 13 3 .333 1.442q1.677-1.03 3.253-2.2a3.952 3.952 0 0 1 -.786-1.142z" fill="#edac77"/><path d="m18 46-13-3-3 3 13 3 .06.259c1.117-.563 2.212-1.165 3.273-1.817z" fill="#e39854"/></svg>