<svg height="512" viewBox="0 0 512 512" width="512" xmlns="http://www.w3.org/2000/svg" id="fi_5965878"><g id="OUTLINE"><path d="m256 304a96 96 0 1 0 96 96 96.10874 96.10874 0 0 0 -96-96zm61.04541 44.37585-10.75241 26.8639-12.396 4.03332-29.897-19.80507v-12.6626l24.08228-20.06836a80.39855 80.39855 0 0 1 28.96313 21.63881zm-61.04541-28.37585a80.09336 80.09336 0 0 1 13.73 1.20337l-13.73 11.44163-13.73-11.44165a80.09336 80.09336 0 0 1 13.73-1.20335zm-32.08228 6.73706 24.08228 20.06836v12.70752l-29.477 19.89941-12.407-4.02735-10.92163-27.28589a80.39089 80.39089 0 0 1 28.72335-21.36205zm-39.47534 37.55469 5.73535 14.32934-13.07983 8.23743a79.339 79.339 0 0 1 7.34448-22.56677zm15.74219 92.94325 14.95117-.99573 3.68433 14.56372a80.40393 80.40393 0 0 1 -18.6355-13.56799zm16.803-17.15455-29.02857 1.93322a79.44352 79.44352 0 0 1 -11.68847-35.72461l24.90527-15.68554 12.21582 3.96533 11.19038 35.06323zm57.57031 37.72327a79.57092 79.57092 0 0 1 -37.48364-.0852l-7.14331-28.23365 7.57837-10.42627h36.97l7.32153 10.11817zm-1.78345-54.74512h-33.49513l-10.0713-31.55469 26.834-18.11524 27.15137 17.98584zm20.00757 47.94848 3.81177-15.06665 15.49707 1.032a80.40581 80.40581 0 0 1 -19.30884 14.03465zm31.43189-29.26294-29.4607-1.96179-7.31225-10.1051 11.59082-35.249 12.20556-3.97143 24.522 15.4436a79.4466 79.4466 0 0 1 -11.54545 35.84372zm10.606-55.34473-12.5874-7.92724 5.52222-13.79663a79.35509 79.35509 0 0 1 7.06511 21.72387z"></path><path d="m325.29785 282.63818a33.03054 33.03054 0 0 0 -24.24316-10.63818h-6.27735a104.04627 104.04627 0 0 1 -15.52783-1.18481 120.25916 120.25916 0 0 0 32.69483-29.14234l46.145-59.32934a103.87479 103.87479 0 0 1 1.91066 19.83178 32.75565 32.75565 0 0 0 15.4834 27.936l116.27637 72.67285 8.48046-13.56836-116.27636-72.67278a16.84707 16.84707 0 0 1 -7.96387-14.36771 119.81034 119.81034 0 0 0 -5.48242-35.81079l10.50976-13.51245a25.17472 25.17472 0 0 0 -2.06734-33.20557 26.70554 26.70554 0 0 0 -18.00537-7.81762 24.93345 24.93345 0 0 0 -24.01831-24.77674 24.93 24.93 0 0 0 -24-24 24.94277 24.94277 0 0 0 -22.47363-23.90319l-14.60039-14.6001a29.85307 29.85307 0 0 0 -40.418-1.83252l-32.56539 27.13818a7.87108 7.87108 0 0 0 -2.81519 7.0669 24.799 24.799 0 0 0 -.99292 6.13061 24.92974 24.92974 0 0 0 -24.00708 24.00012 24.93 24.93 0 0 0 -24 24 24.96515 24.96515 0 0 0 -16.72095 42.60462l8.50367 8.50366-.68921 2.06763a119.78088 119.78088 0 0 0 -6.15723 37.94726 16.84707 16.84707 0 0 1 -7.96387 14.36768l-116.27636 72.67285 8.48046 13.56836 116.27637-72.67285a32.75565 32.75565 0 0 0 15.4834-27.93604 103.78283 103.78283 0 0 1 3.93628-28.30591 24.954 24.954 0 0 0 35.843-14.28161 24.95607 24.95607 0 0 0 32-16 24.95607 24.95607 0 0 0 32-16 24.965 24.965 0 0 0 32.64843-28.70154l1.2295-1.22949 16-16a8.97038 8.97038 0 0 1 12.68554 12.68652l-12 12 11.31446 11.31348 12-12a8.97038 8.97038 0 0 1 12.68554 12.68652l-1.30371 1.30371-10.69629 10.69629 11.31446 11.31348 10.70044-10.70044a10.827 10.827 0 0 1 15.28881.00415 9.15031 9.15031 0 0 1 .752 12.06836l-69.083 88.8208a103.33034 103.33034 0 0 1 -82.0928 40.15039h-6.27735a33.03294 33.03294 0 0 0 -24.24414 10.63867l-176.58887 191.94483 11.7754 10.833 176.58789-191.94433a16.99137 16.99137 0 0 1 12.46972-5.47217h6.27735a120.47905 120.47905 0 0 0 38.87988-6.406 119.56651 119.56651 0 0 0 38.6748 6.406h6.27735a16.989 16.989 0 0 1 12.46875 5.47168l176.58886 191.94482 11.7754-10.833zm-79.61133-247.63037a13.93206 13.93206 0 0 1 18.86231.855l8.29492 8.29492a25.32755 25.32755 0 0 0 -2.501 2.18555l-12 12a25.96993 25.96993 0 0 1 -36.68554 0l-1.80567-1.80566zm-71.34375 123.33545a8.9696 8.9696 0 0 1 -12.68554 0l-16-16a8.97038 8.97038 0 1 1 12.68554-12.68652l16 16a8.98022 8.98022 0 0 1 0 12.68652zm32-16a8.9696 8.9696 0 0 1 -12.68554 0l-8-8-16-16a8.97038 8.97038 0 1 1 12.68554-12.68652l24 24a8.98022 8.98022 0 0 1 0 12.68652zm32-16a8.9696 8.9696 0 0 1 -12.68554 0l-8-8-24-24a8.97038 8.97038 0 1 1 12.68554-12.68652l32 32a8.98022 8.98022 0 0 1 0 12.68652zm32-16a8.9696 8.9696 0 0 1 -12.68554 0l-8-8-22.40381-22.40368a41.98615 41.98615 0 0 0 25.40158.02942l17.68774 17.68775a8.98022 8.98022 0 0 1 .00003 12.68651zm24-40-14.34277 14.34274-12.686-12.686 14.34327-14.34326a8.97038 8.97038 0 0 1 12.68554 12.68652z"></path><path d="m104 128a24.02718 24.02718 0 0 1 24-24v-16a40.04552 40.04552 0 0 0 -40 40z"></path><path d="m96 88v-16a24.02718 24.02718 0 0 0 -24 24h16a8.00917 8.00917 0 0 1 8-8z"></path><path d="m112.5166 206.11133a32.75565 32.75565 0 0 0 15.4834-27.93604h-16a16.84707 16.84707 0 0 1 -7.96387 14.36768l-52.27636 32.67285 8.48046 13.56836z"></path><path d="m22.279 238h22.642v16.001h-22.642z" transform="matrix(.848 -.53 .53 .848 -125.275 55.202)"></path><path d="m408 128a24.09811 24.09811 0 0 1 -12.00586 20.794l8.01172 13.8496a40.00375 40.00375 0 0 0 -20.00586-74.6436v16a24.02718 24.02718 0 0 1 24 24z"></path><path d="m437.64355 105.80518a15.89191 15.89191 0 0 1 -.19335 12.24462l14.68359 6.35547a31.99876 31.99876 0 0 0 -16.65527-42.07861l-6.35547 14.68359a15.89192 15.89192 0 0 1 8.5205 8.79493z"></path></g></svg>