<?xml version="1.0" encoding="UTF-8" standalone="no"?>
<!-- Created with Inkscape (http://www.inkscape.org/) -->

<svg
   version="1.1"
   id="svg1722"
   xml:space="preserve"
   width="682.66669"
   height="682.66669"
   viewBox="0 0 682.66669 682.66669"
   xmlns="http://www.w3.org/2000/svg"
   xmlns:svg="http://www.w3.org/2000/svg"><defs
     id="defs1726"><clipPath
       clipPathUnits="userSpaceOnUse"
       id="clipPath1736"><path
         d="M 0,512 H 512 V 0 H 0 Z"
         id="path1734" /></clipPath></defs><g
     id="g1728"
     transform="matrix(1.3333333,0,0,-1.3333333,0,682.66667)"><g
       id="g1730"><g
         id="g1732"
         clip-path="url(#clipPath1736)"><g
           id="g1738"
           transform="translate(100.4185,303.4873)"><path
             d="m 0,0 c 0,22.184 -17.979,40.166 -40.167,40.166 h -37.62 V 2.543 c 0,-22.184 17.979,-40.167 40.167,-40.167 H 0 Z"
             style="fill:none;stroke:#000000;stroke-width:30;stroke-linecap:round;stroke-linejoin:round;stroke-miterlimit:10;stroke-dasharray:none;stroke-opacity:1"
             id="path1740" /></g><g
           id="g1742"
           transform="translate(411.5815,303.4873)"><path
             d="m 0,0 c 0,22.184 17.979,40.166 40.167,40.166 h 37.62 V 2.543 c 0,-22.184 -17.979,-40.167 -40.167,-40.167 H 0 Z"
             style="fill:none;stroke:#000000;stroke-width:30;stroke-linecap:round;stroke-linejoin:round;stroke-miterlimit:10;stroke-dasharray:none;stroke-opacity:1"
             id="path1744" /></g><g
           id="g1746"
           transform="translate(102.4507,220.6562)"><path
             d="M 0,0 C -11.094,19.212 -35.66,25.794 -54.867,14.702 -71.336,5.195 -87.451,-4.109 -87.451,-4.109 c 0,0 9.303,-16.117 18.814,-32.583 11.086,-19.212 35.653,-25.794 54.868,-14.703 16.468,9.507 32.583,18.813 32.583,18.813 0,0 -9.302,16.115 -18.814,32.582 z"
             style="fill:none;stroke:#000000;stroke-width:30;stroke-linecap:round;stroke-linejoin:round;stroke-miterlimit:10;stroke-dasharray:none;stroke-opacity:1"
             id="path1748" /></g><g
           id="g1750"
           transform="translate(371.9209,376.2373)"><path
             d="m 0,0 c -11.086,19.211 -4.506,43.776 14.709,54.868 16.46,9.508 32.583,18.812 32.583,18.812 0,0 9.303,-16.116 18.807,-32.582 C 77.192,21.886 70.613,-2.68 51.397,-13.771 34.929,-23.278 18.814,-32.584 18.814,-32.584 18.814,-32.584 9.512,-16.467 0,0 Z"
             style="fill:none;stroke:#000000;stroke-width:30;stroke-linecap:round;stroke-linejoin:round;stroke-miterlimit:10;stroke-dasharray:none;stroke-opacity:1"
             id="path1752" /></g><g
           id="g1754"
           transform="translate(140.0791,376.2373)"><path
             d="m 0,0 c 11.086,19.211 4.506,43.776 -14.709,54.868 -16.46,9.508 -32.583,18.812 -32.583,18.812 0,0 -9.303,-16.116 -18.807,-32.582 -11.093,-19.212 -4.514,-43.778 14.702,-54.869 16.468,-9.507 32.583,-18.813 32.583,-18.813 0,0 9.302,16.117 18.814,32.584 z"
             style="fill:none;stroke:#000000;stroke-width:30;stroke-linecap:round;stroke-linejoin:round;stroke-miterlimit:10;stroke-dasharray:none;stroke-opacity:1"
             id="path1756" /></g><g
           id="g1758"
           transform="translate(409.5493,220.6562)"><path
             d="M 0,0 C 11.094,19.212 35.66,25.794 54.867,14.702 71.336,5.195 87.451,-4.109 87.451,-4.109 c 0,0 -9.303,-16.117 -18.814,-32.583 -11.086,-19.212 -35.653,-25.794 -54.868,-14.703 -16.468,9.507 -32.583,18.813 -32.583,18.813 0,0 9.302,16.115 18.814,32.582 z"
             style="fill:none;stroke:#000000;stroke-width:30;stroke-linecap:round;stroke-linejoin:round;stroke-miterlimit:10;stroke-dasharray:none;stroke-opacity:1"
             id="path1760" /></g><g
           id="g1762"
           transform="translate(145.6299,149.9385)"><path
             d="m 0,0 c -19.215,11.092 -43.782,4.51 -54.875,-14.701 -9.504,-16.467 -18.807,-32.584 -18.807,-32.584 0,0 16.115,-9.304 32.584,-18.812 19.207,-11.091 43.773,-4.508 54.867,14.702 9.504,16.468 18.814,32.583 18.814,32.583 0,0 -16.123,9.305 -32.583,18.812 z"
             style="fill:none;stroke:#000000;stroke-width:30;stroke-linecap:round;stroke-linejoin:round;stroke-miterlimit:10;stroke-dasharray:none;stroke-opacity:1"
             id="path1764" /></g><g
           id="g1766"
           transform="translate(366.3701,149.9385)"><path
             d="m 0,0 c 19.215,11.092 43.782,4.51 54.875,-14.701 9.504,-16.467 18.807,-32.584 18.807,-32.584 0,0 -16.115,-9.304 -32.584,-18.812 -19.207,-11.091 -43.773,-4.508 -54.867,14.702 -9.504,16.468 -18.814,32.583 -18.814,32.583 0,0 16.123,9.305 32.583,18.812 z"
             style="fill:none;stroke:#000000;stroke-width:30;stroke-linecap:round;stroke-linejoin:round;stroke-miterlimit:10;stroke-dasharray:none;stroke-opacity:1"
             id="path1768" /></g><g
           id="g1770"
           transform="translate(390.7349,343.6533)"><path
             d="m 0,0 c 13.255,-22.893 20.847,-49.462 20.847,-77.79 0,-85.867 -69.713,-155.58 -155.582,-155.58 -85.869,0 -155.581,69.713 -155.581,155.58 0,28.328 7.591,54.897 20.846,77.79"
             style="fill:none;stroke:#000000;stroke-width:30;stroke-linecap:round;stroke-linejoin:round;stroke-miterlimit:10;stroke-dasharray:none;stroke-opacity:1"
             id="path1772" /></g><g
           id="g1774"
           transform="translate(207.7998,62.083)"><path
             d="M 0,0 48.2,48.2 96.4,0"
             style="fill:none;stroke:#000000;stroke-width:30;stroke-linecap:round;stroke-linejoin:round;stroke-miterlimit:10;stroke-dasharray:none;stroke-opacity:1"
             id="path1776" /></g><g
           id="g1778"
           transform="translate(239.9331,360.5859)"><path
             d="m 0,0 -48.2,-64.267 h 40.167 v -96.4 H 56.233 L 56.233,0 Z"
             style="fill:none;stroke:#000000;stroke-width:30;stroke-linecap:round;stroke-linejoin:round;stroke-miterlimit:10;stroke-dasharray:none;stroke-opacity:1"
             id="path1780" /></g></g></g></g></svg>
