<svg id="fi_2136267" enable-background="new 0 0 512 512" height="512" viewBox="0 0 512 512" width="512" xmlns="http://www.w3.org/2000/svg"><path d="m455.267 7.164c-2.728-4.451-7.571-7.164-12.791-7.164h-117.877c-5.64 0-10.802 3.163-13.363 8.187l-54.266 106.435-56.305-106.626c-2.597-4.918-7.702-7.996-13.264-7.996h-117.877c-5.258 0-10.132 2.753-12.847 7.256-2.714 4.503-2.873 10.099-.417 14.749l95.169 180.229c-41.513 31.508-68.376 81.362-68.376 137.379 0 95.054 77.333 172.387 172.387 172.387 95.055 0 172.388-77.333 172.388-172.388 0-54.586-25.508-103.321-65.224-134.93l93.235-182.869c2.371-4.65 2.155-10.198-.572-14.649zm-342.214 332.448c0-78.513 63.875-142.388 142.388-142.388s142.388 63.875 142.388 142.388-63.876 142.388-142.389 142.388c-78.512 0-142.387-63.875-142.387-142.388zm65.306-309.612 61.945 117.309-11.177 21.921c-18.548 2.853-36.129 8.673-52.245 16.959l-82.475-156.189zm85.362 137.427 70.067-137.427h84.203l-80.558 158.004c-22.114-12.009-47.135-19.313-73.712-20.577z"></path><path d="m255.44 227.475c-61.833 0-112.138 50.305-112.138 112.138s50.305 112.137 112.138 112.137 112.138-50.305 112.138-112.138-50.304-112.137-112.138-112.137zm0 194.275c-45.291 0-82.138-36.847-82.138-82.138s36.847-82.138 82.138-82.138c45.292 0 82.138 36.847 82.138 82.138s-36.846 82.138-82.138 82.138z"></path></svg>