<svg id="fi_10928128" enable-background="new 0 0 512 512" viewBox="0 0 512 512" xmlns="http://www.w3.org/2000/svg"><g><path d="m263.5 30h15v15h-15z"></path><path d="m233.5 30h15v15h-15z"></path><path d="m323.5 276.323v-4.325c0-10.556-7.309-19.433-17.132-21.847l110.016-182.994-43.825-67.157h-233.118l-43.825 67.157 23.577 39.216 12.855-7.729-18.734-31.162 10.409-15.951 104.776 174.279-9.999 16.632-78.722-130.94-12.855 7.729 78.709 130.92c-9.823 2.414-17.132 11.291-17.132 21.847v4.325c-37.122 23.219-60 64.268-60 108.176-.001 70.304 57.196 127.501 127.5 127.501 24.635 0 48.546-7.044 69.147-20.372 20.056-12.975 36.035-31.226 46.209-52.782l-13.564-6.402c-4.523 9.582-10.334 18.329-17.154 26.087l-10.629-10.629c13.109-15.28 21.582-34.647 23.206-55.902h15.021c-.606 9.176-2.307 18.209-5.114 26.938l14.28 4.592c4.046-12.585 6.098-25.716 6.098-39.03.001-43.909-22.878-84.958-60-108.177zm6.509 44.774 10.635-10.635c16.048 18.399 25.934 41.764 27.604 66.538h-15.033c-1.624-21.256-10.097-40.624-23.206-55.903zm-40.75-71.598h-19.999l119.017-197.967 10.409 15.951zm89.908-211.926-127.409 211.926h-19.999l136.999-227.876zm-123.167 142.493-63.166-105.066h126.331zm99.237-165.066-27.054 45h-144.367l-27.054-45zm-222.404 22.573 10.409-15.95 104.007 173-9.999 16.632zm66.923 249.48 3.744-2.167v-12.888c0-4.135 3.364-7.5 7.5-7.5h90c4.136 0 7.5 3.364 7.5 7.5v12.888l3.744 2.167c6.402 3.704 12.353 8 17.808 12.788l-10.649 10.649c-17.06-14.636-39.215-23.492-63.402-23.492s-46.343 8.856-63.402 23.492l-10.649-10.649c5.453-4.788 11.404-9.084 17.806-12.788zm-28.393 171.476c-15.796-18.036-25.929-41.145-27.608-66.53h15.03c1.624 21.255 10.098 40.623 23.206 55.902zm-12.578-81.53h-15.033c1.67-24.773 11.556-48.139 27.604-66.538l10.635 10.635c-13.109 15.28-21.582 34.648-23.206 55.903zm97.215 120.001c-28.323 0-54.232-10.525-74.03-27.864l10.628-10.628c17.059 14.636 39.215 23.492 63.402 23.492s46.343-8.856 63.402-23.492l10.602 10.602c-20.191 17.598-46.409 27.89-74.004 27.89zm0-30c-45.491 0-82.501-37.01-82.501-82.501s37.01-82.501 82.501-82.501 82.501 37.01 82.501 82.501-37.01 82.501-82.501 82.501z"></path><path d="m233.5 357.092h15v69.814h15v-84.814h-30z"></path></g><g></g><g></g><g></g><g></g><g></g><g></g><g></g><g></g><g></g><g></g><g></g><g></g><g></g><g></g><g></g></svg>