<svg id="Capa_1" enable-background="new 0 0 497 497" height="512" viewBox="0 0 497 497" width="512" xmlns="http://www.w3.org/2000/svg"><g><path d="m45 452c-24.75 0-45-20.25-45-45v-287c0-8.25 6.75-15 15-15h15l30-30v-15c0-8.25 6.75-15 15-15h377c8.25 0 15 6.75 15 15v13l-171.9 349s-192.24 30-250.1 30z" fill="#b9c3cd"/><path d="m60 75h-15c-8.25 0-15 6.75-15 15v316.576c0 8.077 6.207 15.027 14.275 15.407 8.614.405 15.725-6.458 15.725-14.983z" fill="#909ba6"/><path d="m497 407v-317c0-8.25-6.75-15-15-15h-377c-8.25 0-15 6.75-15 15v317c0 9.233-2.82 17.837-7.639 25l207.319 10 199.681-10c4.819-7.163 7.639-15.767 7.639-25z" fill="#dce6eb"/><path d="m489.361 432h-407c-8.098 12.038-21.844 20-37.361 20h407c15.517 0 29.263-7.962 37.361-20z" fill="#b9c3cd"/><g fill="#5f6c75"><path d="m452 412.5h-136c-4.143 0-7.5-3.357-7.5-7.5s3.357-7.5 7.5-7.5h136c4.143 0 7.5 3.357 7.5 7.5s-3.357 7.5-7.5 7.5z"/><path d="m271 412.5h-136c-4.143 0-7.5-3.357-7.5-7.5s3.357-7.5 7.5-7.5h136c4.143 0 7.5 3.357 7.5 7.5s-3.357 7.5-7.5 7.5z"/><path d="m452 367.5h-136c-4.143 0-7.5-3.357-7.5-7.5s3.357-7.5 7.5-7.5h136c4.143 0 7.5 3.357 7.5 7.5s-3.357 7.5-7.5 7.5z"/><path d="m271 367.5h-136c-4.143 0-7.5-3.357-7.5-7.5s3.357-7.5 7.5-7.5h136c4.143 0 7.5 3.357 7.5 7.5s-3.357 7.5-7.5 7.5z"/></g><path d="m459.5 299.715-135.383 10 10-92.215h125.383z" fill="#9ec8fc"/><path d="m334.117 217.5h-18.117c-4.142 0-7.5 3.358-7.5 7.5v90c0 4.142 3.358 7.5 7.5 7.5h136c4.142 0 7.5-3.358 7.5-7.5v-15.285h-117.844c-4.163 0-7.539-3.375-7.539-7.539z" fill="#62a4fb"/><path d="m271 322.5h-136c-4.143 0-7.5-3.357-7.5-7.5s3.357-7.5 7.5-7.5h136c4.143 0 7.5 3.357 7.5 7.5s-3.357 7.5-7.5 7.5z" fill="#5f6c75"/><path d="m271 277.5h-136c-4.143 0-7.5-3.357-7.5-7.5s3.357-7.5 7.5-7.5h136c4.143 0 7.5 3.357 7.5 7.5s-3.357 7.5-7.5 7.5z" fill="#5f6c75"/><path d="m271 232.5h-136c-4.143 0-7.5-3.357-7.5-7.5s3.357-7.5 7.5-7.5h136c4.143 0 7.5 3.357 7.5 7.5s-3.357 7.5-7.5 7.5z" fill="#5f6c75"/><path d="m452 157.5h-317c-4.143 0-7.5-3.357-7.5-7.5s3.357-7.5 7.5-7.5h317c4.143 0 7.5 3.357 7.5 7.5s-3.357 7.5-7.5 7.5z" fill="#5f6c75"/></g></svg>