<svg height="852pt" viewBox="-46 -26 852 852.49666" width="852pt" xmlns="http://www.w3.org/2000/svg" id="fi_1232140"><path d="m703.167969 571.027344c0-31 37.972656-151.699219 52.582031-195.59375 1.351562-4.058594.667969-8.519532-1.828125-11.988282-2.503906-3.480468-6.515625-5.53125-10.800781-5.539062-39.375-.921875-78.59375-5.285156-117.214844-13.050781-35.285156-5.726563-71.324219-4.972657-106.34375 2.222656l-6.472656-12.945313c-8.625-17.371093-23.84375-30.566406-42.265625-36.644531l-4.167969-1.332031c4.945312-23.792969-6.6875-47.949219-28.386719-58.898438l-14.828125-7.460937v-3.386719c.066406-14.273437-8.007812-27.339844-20.800781-33.671875l-24.179687-12.109375c-7.054688-3.535156-15.058594-4.726562-22.839844-3.394531-2.582032-10.558594-9.039063-19.769531-18.09375-25.785156l-25.476563-16.984375-25.707031-25.710938c-.160156-.15625-.363281-.261718-.519531-.40625-.160157-.148437-.503907-.390625-.765625-.585937-1.128906-.9375-2.421875-1.660157-3.804688-2.160157h-.144531c-1.46875-.46875-3.003906-.667968-4.542969-.605468h-.863281c-.3125 0-.617187 0-.910156 0-.449219.164062-.894531.355468-1.328125.5625-.847656.140625-1.679688.359375-2.484375.667968-.359375.253907-.707031.519532-1.03125.8125-.601563.394532-1.167969.84375-1.699219 1.332032-.945312.839844-1.765625 1.808594-2.433594 2.886718-.222656.363282-.601562.578126-.796875.949219-.988281 1.972657-2.160156 4.167969-3.382812 6.410157-6.582031-50.820313-11.347657-107.425782-11.347657-108.132813-.359374-4.332031-2.804687-8.214844-6.554687-10.4101562-3.753906-2.1953128-8.335937-2.4179688-12.285156-.6093748-134.53125 61.113281-184.519531 16.332031-184.871094 15.984375-3.808594-3.8125-9.546875-4.949219-14.527344-2.878907-4.984375 2.070313-8.21875 6.941407-8.210937 12.339844 0 15.582032 10.074218 40.796875 25.738281 70.59375-19.429687-9.074218-32.902344-15.785156-33.101563-15.886718-4.121093-2.066407-9.023437-1.84375-12.945312.574218-3.921875 2.425782-6.3125 6.703125-6.328125 11.3125 1.152344 24.164063 5.871094 48.027344 14 70.808594 4.492187 13.445312 20.328125 31.757812 47.273437 54.738281 8.515626 29.226563 14.804688 59.058594 18.808594 89.242188.835938 6.640625 6.46875 11.625 13.160156 11.660156 9.589844.128906 19.15625.914063 28.640626 2.339844-1.292969 8.035156-1.964844 16.15625-2 24.296875.609374 19.882812 6.300781 39.285156 16.539062 56.34375 30.640625 56.988281 29.03125 125.898437-4.234375 181.402344l-92.753906 154.605468c-7.414063 12.34375-7.609375 27.714844-.523438 40.246094 7.09375 12.535156 20.382813 20.28125 34.777344 20.28125h202.890625c15.148438.046875 29.003906-8.519531 35.738281-22.085938l35.578125-71.15625c6.667969-12.921874 12.339844-26.328124 16.96875-40.109374 4.363282-13.519532 9.753906-26.679688 16.117188-39.382813l2.582031-5.183594 64.324219-51.453125.492187-.453125 73.125 116.992188c2.433594 3.894531 6.703125 6.269531 11.296875 6.269531.972656 0 1.941406-.105469 2.894532-.308594 12.796874-2.847656 125.941406-29.046875 154.707031-72.21875 3.042969-4.566406 2.976562-10.527344-.171875-15.023437l-13.304688-19.007813h15.714844c7.363281 0 13.324219-5.960937 13.324219-13.320312zm-249.21875-251.070313 8.398437 2.800781c11.703125 3.863282 21.375 12.246094 26.851563 23.28125l10.660156 21.433594c-1.878906 1.53125-3.621094 3.195313-5.464844 4.765625-1.5625 1.332031-3.179687 2.667969-4.71875 3.996094-1.085937.957031-2.117187 1.933594-3.1875 2.902344-3.046875 2.800781-5.980469 5.632812-8.925781 8.503906-1.328125 1.324219-2.664062 2.550781-3.996094 3.875l-2.101562 2.113281c-3.472656 3.507813-6.808594 7.011719-10.136719 10.511719-1.332031 1.425781-2.757813 2.851563-4.089844 4.277344-4.515625 4.835937-8.925781 9.617187-13.171875 14.25-3.242187 3.550781-6.390625 6.980469-9.460937 10.285156l-1.53125 1.609375c-2.199219 2.351562-4.351563 4.609375-6.445313 6.792969l-1.007812 1.054687c-1.5625 1.597656-3.292969 3.332032-5.082032 5.074219-.394531.402344-.8125.808594-1.226562 1.199219-5.691406 6.117187-12.410156 11.195312-19.84375 15.015625-5.140625-6.835938-10.789062-14-16.8125-21.382813.53125-1.4375.8125-2.957031.828125-4.492187 0-22.230469 24.785156-70.371094 70.464844-117.867188zm-40.496094-65.371093 12.855469 6.433593c11.898437 6.003907 17.609375 19.804688 13.457031 32.464844l-1.402344 4.175781c-44.382812 45.03125-69.257812 88.164063-77.839843 118.550782-10.660157-12.324219-21.789063-24.628907-32.566407-36.351563 15.566407-11 31.136719-36.269531 53.640625-74.828125 9.652344-17.410156 20.292969-34.25 31.855469-50.445312zm-59.675781-47.957032.113281-.101562c3.335937-3.339844 8.433594-4.164063 12.652344-2.058594l24.183593 12.113281c3.742188 1.839844 6.097657 5.652344 6.074219 9.8125v6.464844c-14.316406 18.511719-27.097656 38.171875-38.210937 58.769531-15.246094 26.132813-36.140625 61.914063-47.65625 67.664063-.429688.296875-.835938.621093-1.226563.960937-7.726562-8.203125-14.933593-15.761718-21.40625-22.488281 1.21875-1.949219 1.886719-4.195313 1.945313-6.496094 0-25.777343 38.707031-89.726562 63.53125-124.621093zm-44.378906-41.953125 13.320312 8.894531c4.679688 3.089844 7.488281 8.328126 7.488281 13.933594v6.339844c-11.324219 16.15625-50.621093 74.15625-62.84375 115.886719 3.101563-13.238281 2.722657-27.050781-1.109375-40.097657 45.300782-34.140624 49.675782-73.347656 43.144532-104.949218zm-84.074219-133.523437c2.554687 27.640625 7.820312 80.691406 14.160156 121.214844l-.910156 1.171874c-1.328125 1.640626-2.527344 3.023438-3.757813 4.40625-1.222656 1.386719-2.179687 2.535157-3.273437 3.691407-.886719.933593-1.707031 1.675781-2.527344 2.476562-1.335937 1.335938-2.667969 2.515625-3.9375 3.609375-.671875.5625-1.324219 1.070313-1.941406 1.535156-1.699219 1.351563-3.523438 2.558594-5.445313 3.582032l-1.8125.976562-.292968.15625c-21.59375 12.144532-40.15625 29.046875-54.265626 49.417969-.695312-1-1.328124-1.960937-2.066406-3-4.523437-6.542969-8.886718-12.945313-13.167968-19.273437-2.546876-3.769532-5.15625-7.671876-7.820313-11.652344l-6.078125-9.160156c-4.25-6.453126-8.542969-13.039063-12.867188-19.757813-2.25-3.507813-4.507812-7.007813-6.65625-10.414063-2.144531-3.414062-4.117187-6.53125-6.167968-9.820312-2.773438-4.441406-5.433594-8.808594-7.992188-13.105469-1.335937-2.238281-2.742187-4.488281-4.09375-6.726562-13.851562-22.347657-26.148437-45.628907-36.796875-69.664063 29.742188 10.054688 83.21875 15.183594 167.710938-19.664062zm-91.738281 244.28125c-.714844 1.328125-1.398438 2.765625-2.121094 4.21875-.820313 1.675781-1.632813 3.359375-2.441406 5.207031-.816407 1.851563-1.402344 3.453125-2.09375 5.25-.523438 1.332031-1.078126 2.53125-1.570313 3.992187-8.074219-1.195312-15.855469-1.980468-23.296875-2.410156-1.640625-10.804687-4.535156-28.121094-8.699219-46.765625 11.996094 9.011719 25.269531 18.5625 39.824219 28.65625l1 .707031c-.199219.300782-.394531.765626-.601562 1.144532zm-1.738282-35.433594-2.664062-1.945312c-16.507813-11.882813-34.265625-25.308594-50.097656-38.496094-26.960938-22.640625-39.960938-37.761719-42.628907-45.660156-4.382812-13.042969-7.773437-26.398438-10.132812-39.960938 12.070312 5.742188 28.148437 13.214844 45.488281 20.835938 21.375 35.757812 47.152344 74.425781 71.726562 109.6875 1.332032 1.941406 2.769532 4 3.996094 5.785156l-.242187.632812-.636719-.453125c-3.363281-2.328125-6.542969-4.578125-9.710938-6.835937-1.664062-1.15625-3.359374-2.339844-5.097656-3.589844zm229.992188 360.585938c-1.5 1.207031-2.726563 2.722656-3.597656 4.449218l-3.890626 7.804688c-6.949218 13.90625-12.847656 28.316406-17.644531 43.101562-4.203125 12.507813-9.363281 24.671875-15.4375 36.378906l-35.578125 71.140626c-2.242187 4.527343-6.859375 7.382812-11.910156 7.367187h-202.890625c-4.800781 0-9.226563-2.585937-11.589844-6.761719-2.363281-4.175781-2.292969-9.300781.175781-13.417968l92.757813-154.609376c38.089844-63.457031 39.976563-142.28125 4.972656-207.492187-8.160156-13.269531-12.800781-28.394531-13.484375-43.957031-.042968-11.238282 1.386719-22.4375 4.25-33.304688 2.953125-11.796875 8.054688-22.957031 15.070313-32.898437 1.121093-1.558594 2.324219-3.058594 3.609375-4.488281.484375-.550782.929687-1.136719 1.324218-1.757813.257813-.3125.5-.632813.707032-.972656.597656-1.019531 1.039062-2.117188 1.339844-3.265625.609374-2.453125 1.328124-4.824219 2.183593-7.152344s1.605469-4.328125 2.664063-6.65625l.085937-.230469c.992188-2.265625 2.070313-4.460937 3.210938-6.664062l.175781-.316407c1.136719-2.101562 2.316406-4.15625 3.566406-6.125l.164063-.25c12.167969-18.222656 28.503906-33.292968 47.648437-43.957031.183594-.109375.371094-.257812.570313-.359375 2.542969-1.316406 4.988281-2.820312 7.3125-4.488281 1.183593-.855469 2.394531-1.929687 3.597656-2.898437 1.4375-1.179688 2.902344-2.316407 4.3125-3.617188 1.164063-1.066406 2.34375-2.273438 3.515625-3.445312 1.699219-1.707032 3.359375-3.429688 4.980469-5.238282.8125-.921875 1.644531-1.835937 2.453125-2.800781 7.152344-8.492187 13.6875-17.488281 19.554687-26.921875 14.652344 34.570312 18.566407 72.308594-33.019531 106.683594-5.589844 3.726562-7.53125 11.027344-4.53125 17.035156 5.820312 13.179688 5.820312 28.191406 0 41.367188-2.558594 5.136718-1.554688 11.328124 2.507812 15.378906 1.023438 1.027344 103.546876 103.75 145.03125 163.089844 2.492188 3.566406 6.5625 5.6875 10.914063 5.6875 1.265625-.007813 2.511719-.195313 3.722656-.558594l30.632813 48.933594zm-95.90625-285.839844v.082031zm270.265625 347.65625-113.457031-181.578125c5.769531-4.308594 11.226562-9.023438 16.316406-14.121094.425781.113281.835937.175781 1.328125.28125 1.335937.324219 2.664062.71875 4 1.089844 1.703125.480469 3.410156.972656 5.164062 1.550781 1.339844.4375 2.664063.929688 3.996094 1.410156 1.863281.667969 3.730469 1.332032 5.648437 2.078125 1.332032.515625 2.664063 1.078125 3.996094 1.628907 2.066406.84375 4.125 1.710937 6.21875 2.664062 1.269532.539062 2.53125 1.125 3.808594 1.710938 2.292969 1.054687 4.613281 2.132812 6.953125 3.277343l3.308594 1.625c2.660156 1.335938 5.246093 2.664063 7.910156 4l2.558594 1.328125c3 1.597656 6.023437 3.238282 9.054687 4.914063l1.574219.878906c3.460937 1.945313 6.929687 3.925781 10.402344 5.945313l.292969.171874c30.128906 17.609376 60.324218 38.132813 82.914062 53.476563 13.316406 9.613281 27.140625 18.507813 41.402344 26.640625l20.195312 28.855469c-24.457031 23.816406-89.824218 43.832031-123.546875 52.199219zm115.859375-104.695313c-13.476563-7.6875-26.535156-16.09375-39.121094-25.160156-36.417969-25.714844-74.339844-49.210937-113.570312-70.386719l-1.863282-.945312c-6.019531-3.019532-11.945312-5.816406-17.78125-8.390625l-2.308594-.984375c-5.804687-2.488282-11.503906-4.742188-17.03125-6.660156-.171874-.066407-.371093-.160157-.542968-.214844 1.328125-1.4375 2.566406-2.800782 3.914062-4.261719 18.480469-21.414063 38.875-41.101563 60.925782-58.820313 1.15625-.890624 2.160156-1.964843 2.964843-3.183593.132813-.175781.238281-.363281.351563-.542969.199218-.378906.375-.761719.527344-1.160156.308593-.503906.570312-1.023438.800781-1.5625l1.078125-3.246094c29.765625-5.636719 60.269531-6.050781 90.183594-1.226562 34.394531 6.855468 69.25 11.203124 104.277343 13.023437-12.652343 39.1875-41.308593 130.25-47.242187 173.722656zm0 0"></path><path d="m226.308594 504.699219c-7.105469-1.230469-13.890625 3.425781-15.3125 10.496093-1.429688 7.066407 3.035156 13.988282 10.070312 15.605469.59375.121094 60.644532 12.867188 83.910156 59.5 3.292969 6.582031 11.292969 9.257813 17.878907 5.96875 6.585937-3.289062 9.253906-11.289062 5.964843-17.875-29.253906-58.4375-99.578124-73.113281-102.511718-73.695312zm0 0"></path></svg>