<svg height="512pt" viewBox="-34 0 512 512.00118" width="512pt" xmlns="http://www.w3.org/2000/svg" id="fi_1540436"><path d="m374.066406 317.9375h-15.292968c-4.144532 0-7.5 3.355469-7.5 7.5 0 4.140625 3.355468 7.5 7.5 7.5h15.292968c30.238282 0 54.835938 24.597656 54.835938 54.832031v79.519531h-22.515625c-8.132813 0-14.746094 6.613282-14.746094 14.742188v14.972656h-22.71875v-65.003906c0-4.144531-3.355469-7.5-7.5-7.5-4.140625 0-7.5 3.355469-7.5 7.5v65.003906h-263.941406v-65.003906c0-4.144531-3.355469-7.5-7.5-7.5s-7.5 3.355469-7.5 7.5v65.003906h-22.71875v-14.972656c0-8.128906-6.613281-14.742188-14.746094-14.742188h-22.515625v-79.519531c0-30.234375 24.597656-54.832031 54.835938-54.832031h65.789062l-.882812 1.328125c-1.851563 2.785156-1.636719 6.457031.527343 9.003906l46.269531 54.539063c2.914063 3.4375 8.257813 3.578125 11.320313.136718l7.308594-8.207031v.726563c0 4.140625 3.355469 7.5 7.5 7.5 4.140625 0 7.5-3.359375 7.5-7.5v-17.582032l6.785156-7.625 6.785156 7.625v56.761719h-13.570312v-4.183593c0-4.140626-3.359375-7.5-7.5-7.5-4.144531 0-7.5 3.359374-7.5 7.5v4.398437c0 8.152344 6.632812 14.785156 14.785156 14.785156h14c8.152344 0 14.785156-6.632812 14.785156-14.785156v-40.125l7.304688 8.210937c3.074219 3.449219 8.417969 3.292969 11.320312-.136718l46.273438-54.539063c2.160156-2.550781 2.375-6.21875.527343-9.003906l-.886718-1.332031h15.496094c4.144531 0 7.5-3.355469 7.5-7.5 0-4.140625-3.355469-7.496094-7.5-7.496094h-25.457032l-.949218-1.429688c-3.269532-4.921874-9.699219-6.714843-15.011719-4.34375v-27.703124c22.890625-16.617188 41.527343-40.570313 43.617187-68.988282l.355469-4.851562c25.171875-1.929688 45.066406-23.027344 45.066406-48.6875v-2.433594c0-16.390625-13.335937-29.726562-29.726562-29.726562h-9.386719l.75-10.210938c2.269531-30.769531-8.472656-61.382812-29.472656-83.988281-38.136719-41.054688-102.015625-47.90625-148.066406-13.574219-3.324219 2.472656-4.007813 7.171875-1.53125 10.492188 2.472656 3.320312 7.171874 4.007812 10.496093 1.53125 16.691407-12.445313 36.574219-19.023438 57.496094-19.023438 27.097656 0 52.175781 10.933594 70.617187 30.785156 18.4375 19.847656 27.496094 45.65625 25.503907 72.675782-.574219 7.777343-6.191407 84.082031-7.0625 95.910156-2.480469 33.722656-33.878907 58.964844-59.289063 70.695312v-36.351562c0-4.144532-3.355468-7.5-7.5-7.5h-44.542968c-4.140626 0-7.5 3.355468-7.5 7.5v36.351562c-25.410157-11.730468-56.804688-36.972656-59.289063-70.699218-2.226563-30.257813-4.828125-65.613282-7.058594-95.910157-1.609375-21.808593 3.984375-42.878906 16.175781-60.929687 2.316407-3.433594 1.414063-8.09375-2.019531-10.414063-3.433593-2.316406-8.097656-1.414062-10.414062 2.019531-14.09375 20.875-20.5625 45.226563-18.703125 70.429688l.753906 10.210938h-9.386719c-16.394531 0-29.730469 13.335937-29.730469 29.726562v2.433594c0 25.660156 19.894532 46.757812 45.066407 48.6875l.359375 4.851562c2.089844 28.425782 20.734375 52.378906 43.613281 68.988282v27.703124c-5.3125-2.371093-11.742187-.578124-15.007813 4.339844l-.949218 1.429688h-75.753906c-38.507813 0-69.835938 31.328125-69.835938 69.835937v116.730469c0 4.144531 3.359375 7.5 7.5 7.5h428.902344c4.140625 0 7.5-3.355469 7.5-7.5v-116.730469c0-38.503906-31.328125-69.832031-69.835938-69.832031zm-32.398437-173.160156c8.121093 0 14.726562 6.605468 14.726562 14.730468v2.429688c0 16.996094-12.597656 31.105469-28.945312 33.476562l3.726562-50.636718zm-254.160157 17.160156v-2.433594c0-8.121094 6.605469-14.726562 14.730469-14.726562h10.492188l3.726562 50.636718c-16.351562-2.375-28.949219-16.480468-28.949219-33.476562zm206.039063 175.929688-37.039063 43.65625-22.707031-25.515626c10.625-5.855468 40.792969-22.484374 52.550781-28.96875 2.195313 3.300782 1.628907 2.453126 7.195313 10.828126zm-56.824219-81.648438v53.746094c0 1.648437-1.339844 2.988281-2.988281 2.988281h-23.566406c-1.644531 0-2.984375-1.339844-2.984375-2.988281 0-100.535156 0-1.96875 0-53.746094zm-44.542968 45.183594v8.5625c0 9.917968 8.070312 17.988281 17.988281 17.988281h23.566406c9.917969 0 17.988281-8.070313 17.988281-17.988281v-8.5625c5.261719-2.078125 10.511719-4.570313 15.632813-7.402344v22.515625c0 1.234375.140625 2.457031.410156 3.640625l-45.816406 25.257812-45.816407-25.257812c.273438-1.183594.414063-2.40625.414063-3.640625v-22.515625c5.121094 2.832031 10.371094 5.324219 15.632813 7.402344zm17.921874 54.605468-22.707031 25.519532-37.039062-43.660156c4.640625-6.980469 6.097656-9.175782 7.195312-10.828126 78.953125 43.523438 42.617188 23.492188 52.550781 28.96875zm-195.101562 140.996094v-14.71875h22.261719v14.71875zm413.902344 0h-22.261719v-14.71875h22.261719zm0 0"></path><path d="m302.914062 408.382812c-21.148437 0-38.355468 17.207032-38.355468 38.359376 0 21.148437 17.207031 38.355468 38.355468 38.355468 21.152344 0 38.359376-17.207031 38.359376-38.355468 0-21.152344-17.207032-38.359376-38.359376-38.359376zm0 61.714844c-12.878906 0-23.355468-10.476562-23.355468-23.355468 0-12.878907 10.476562-23.359376 23.355468-23.359376 12.878907 0 23.359376 10.480469 23.359376 23.359376 0 12.878906-10.480469 23.355468-23.359376 23.355468zm0 0"></path><path d="m218.175781 284.027344h7.550781c4.144532 0 7.5-3.355469 7.5-7.5 0-4.144532-3.355468-7.5-7.5-7.5h-7.550781c-4.144531 0-7.5 3.355468-7.5 7.5 0 4.144531 3.355469 7.5 7.5 7.5zm0 0"></path></svg>