<?xml version="1.0" encoding="iso-8859-1"?>
<!-- Generator: Adobe Illustrator 19.0.0, SVG Export Plug-In . SVG Version: 6.00 Build 0)  -->
<svg version="1.1" id="Capa_1" xmlns="http://www.w3.org/2000/svg" xmlns:xlink="http://www.w3.org/1999/xlink" x="0px" y="0px"
	 viewBox="0 0 512.001 512.001" style="enable-background:new 0 0 512.001 512.001;" xml:space="preserve">
<path style="fill:#FADC60;" d="M153.413,304.248H79.538c-12.001,0-21.729,9.728-21.729,21.729v164.294
	c0,12.001,9.728,21.729,21.729,21.729h73.874c12.001,0,21.729-9.728,21.729-21.729V325.977
	C175.141,313.976,165.413,304.248,153.413,304.248z"/>
<path style="fill:#F2C42C;" d="M88.715,490.271V325.977c0-12,9.728-21.729,21.729-21.729H79.538
	c-12.001,0-21.729,9.728-21.729,21.729v164.295c0,12.001,9.728,21.729,21.729,21.729h30.905
	C98.443,512,88.715,502.272,88.715,490.271z"/>
<path style="fill:#FD6F71;" d="M312.725,228.898h-73.874c-12.001,0-21.729,9.728-21.729,21.729v239.645
	c0,12.001,9.728,21.729,21.729,21.729h73.874c12.001,0,21.729-9.728,21.729-21.729V250.626
	C334.454,238.626,324.726,228.898,312.725,228.898z"/>
<path style="fill:#E34B4C;" d="M248.028,490.271V250.626c0-12.001,9.728-21.729,21.729-21.729h-30.905
	c-12.001,0-21.729,9.728-21.729,21.729v239.645c0,12.001,9.728,21.729,21.729,21.729h30.905
	C257.756,512,248.028,502.272,248.028,490.271z"/>
<path style="fill:#57D0E6;" d="M472.037,153.547h-73.874c-12.001,0-21.729,9.728-21.729,21.729v314.995
	c0,12.001,9.728,21.729,21.729,21.729h73.874c12.001,0,21.729-9.728,21.729-21.729V175.276
	C493.765,163.275,484.037,153.547,472.037,153.547z"/>
<path style="fill:#4DB8CC;" d="M407.34,490.271V175.276c0-12.001,9.728-21.729,21.729-21.729h-30.905
	c-12.001,0-21.729,9.728-21.729,21.729v314.995c0,12.001,9.728,21.729,21.729,21.729h30.905
	C417.068,512,407.34,502.272,407.34,490.271z"/>
<path style="fill:#58B78C;" d="M492.598,0.095l-74.628,9.726l18.039,24.128l-63.91,47.784l-33.617-29.639
	c-5.733-5.055-14.224-5.396-20.347-0.82L175.201,158.138l-33.437-25.048c-5.734-4.296-13.612-4.299-19.349-0.009L7.237,219.196
	l19.336,25.864l105.501-78.879l33.437,25.048c5.733,4.296,13.612,4.299,19.349,0.009L326.964,84.991l33.617,29.639
	c5.733,5.055,14.226,5.397,20.347,0.82l74.417-55.639l18.056,24.149l30.427-68.85C507.218,7.439,500.914-0.989,492.598,0.095z"/>
<g>
</g>
<g>
</g>
<g>
</g>
<g>
</g>
<g>
</g>
<g>
</g>
<g>
</g>
<g>
</g>
<g>
</g>
<g>
</g>
<g>
</g>
<g>
</g>
<g>
</g>
<g>
</g>
<g>
</g>
</svg>
