<svg version="1.1" id="Capa_1" xmlns="http://www.w3.org/2000/svg" xmlns:xlink="http://www.w3.org/1999/xlink" x="0px" y="0px" viewBox="0 0 512 512" style="enable-background:new 0 0 512 512;" xml:space="preserve">
<g>
	<path style="fill:none;stroke:gray;stroke-width:15;stroke-linecap:round;stroke-linejoin:round;stroke-miterlimit:10;" d="&#10;&#9;&#9;M60.889,181.729v265.069c0,31.868,25.834,57.702,57.702,57.702h274.818c31.868,0,57.702-25.834,57.702-57.702v-11.377"/>
	<path style="fill:none;stroke:gray;stroke-width:15;stroke-linecap:round;stroke-linejoin:round;stroke-miterlimit:10;" d="&#10;&#9;&#9;M306.509,52.488C303.598,27.167,282.101,7.5,256,7.5s-47.598,19.667-50.509,44.988h-35.8c-10.128,0-18.338,8.21-18.338,18.338&#10;&#9;&#9;v22.983c0,10.128,8.21,18.338,18.338,18.338h172.617c10.128,0,18.338-8.21,18.338-18.338V70.826&#10;&#9;&#9;c0-10.128-8.21-18.338-18.338-18.338H306.509z"/>
	
		<circle style="fill:none;stroke:gray;stroke-width:15;stroke-linecap:round;stroke-linejoin:round;stroke-miterlimit:10;" cx="256" cy="58.356" r="18.093"/>
	
		<circle style="fill:none;stroke:gray;stroke-width:15;stroke-linecap:round;stroke-linejoin:round;stroke-miterlimit:10;" cx="357.562" cy="422.484" r="35"/>
	
		<circle style="fill:none;stroke:gray;stroke-width:15;stroke-linecap:round;stroke-linejoin:round;stroke-miterlimit:10;" cx="154.438" cy="310.551" r="35"/>
	
		<circle style="fill:none;stroke:gray;stroke-width:15;stroke-linecap:round;stroke-linejoin:round;stroke-miterlimit:10;" cx="344.283" cy="266.832" r="35"/>
	<path style="fill:none;stroke:gray;stroke-width:15;stroke-linecap:round;stroke-linejoin:round;stroke-miterlimit:10;" d="&#10;&#9;&#9;M235.304,203.132l11.473-11.473c6.275-6.275,6.275-16.449,0-22.724s-16.448-6.275-22.723,0l-11.473,11.473l-11.473-11.473&#10;&#9;&#9;c-6.275-6.275-16.448-6.275-22.723,0s-6.275,16.449,0,22.724l11.473,11.473l-11.473,11.473c-6.275,6.275-6.275,16.449,0,22.724&#10;&#9;&#9;c3.137,3.137,7.249,4.706,11.362,4.706c4.112,0,8.224-1.568,11.362-4.706l11.473-11.473l11.473,11.473&#10;&#9;&#9;c3.137,3.137,7.249,4.706,11.362,4.706s8.224-1.568,11.362-4.706c6.275-6.275,6.275-16.449,0-22.724L235.304,203.132z"/>
	<path style="fill:none;stroke:gray;stroke-width:15;stroke-linecap:round;stroke-linejoin:round;stroke-miterlimit:10;" d="&#10;&#9;&#9;M211.276,429.583l11.473-11.473c6.275-6.275,6.275-16.449,0-22.724s-16.448-6.275-22.723,0l-11.473,11.473l-11.473-11.473&#10;&#9;&#9;c-6.275-6.275-16.448-6.275-22.723,0s-6.275,16.449,0,22.724l11.473,11.473l-11.473,11.473c-6.275,6.275-6.275,16.449,0,22.724&#10;&#9;&#9;c3.137,3.137,7.249,4.706,11.362,4.706s8.224-1.568,11.362-4.706l11.473-11.473l11.473,11.473&#10;&#9;&#9;c3.137,3.137,7.249,4.706,11.362,4.706c4.112,0,8.224-1.568,11.362-4.706c6.275-6.275,6.275-16.449,0-22.724L211.276,429.583z"/>
	
		<polyline style="fill:none;stroke:gray;stroke-width:15;stroke-linecap:round;stroke-linejoin:round;stroke-miterlimit:10;" points="&#10;&#9;&#9;373.805,180.296 344.283,148.161 314.76,180.296 &#9;"/>
	<path style="fill:none;stroke:gray;stroke-width:15;stroke-linecap:round;stroke-linejoin:round;stroke-miterlimit:10;" d="&#10;&#9;&#9;M151.354,82.806h-32.763c-31.868,0-57.702,25.834-57.702,57.702v6.22"/>
	<path style="fill:none;stroke:gray;stroke-width:15;stroke-linecap:round;stroke-linejoin:round;stroke-miterlimit:10;" d="&#10;&#9;&#9;M451.111,400.421V140.508c0-31.868-25.834-57.702-57.702-57.702h-32.763"/>
	
		<line style="fill:none;stroke:gray;stroke-width:15;stroke-linecap:round;stroke-linejoin:round;stroke-miterlimit:10;" x1="188.553" y1="302.694" x2="310.178" y2="274.686"/>
	
		<line style="fill:none;stroke:gray;stroke-width:15;stroke-linecap:round;stroke-linejoin:round;stroke-miterlimit:10;" x1="326.903" y1="405.589" x2="185.093" y2="327.443"/>
	
		<line style="fill:none;stroke:gray;stroke-width:15;stroke-linecap:round;stroke-linejoin:round;stroke-miterlimit:10;" x1="344.283" y1="231.832" x2="344.283" y2="148.161"/>
</g>
<g>
</g>
<g>
</g>
<g>
</g>
<g>
</g>
<g>
</g>
<g>
</g>
<g>
</g>
<g>
</g>
<g>
</g>
<g>
</g>
<g>
</g>
<g>
</g>
<g>
</g>
<g>
</g>
<g>
</g>
</svg>