<?xml version="1.0" encoding="UTF-8"?>
<svg xmlns="http://www.w3.org/2000/svg" xmlns:xlink="http://www.w3.org/1999/xlink" version="1.1" id="Capa_1" x="0px" y="0px" viewBox="0 0 512 512" style="enable-background:new 0 0 512 512;" xml:space="preserve" width="512" height="512">
<g>
	<path style="fill:none;stroke:gray;stroke-width:15;stroke-linecap:round;stroke-linejoin:round;stroke-miterlimit:10;" d="&#10;&#9;&#9;M94.416,67.2C137.863,29.982,194.306,7.5,256,7.5c137.243,0,248.5,111.257,248.5,248.5S393.243,504.5,256,504.5&#10;&#9;&#9;S7.5,393.243,7.5,256c0-63.628,23.914-121.671,63.244-165.631"/>
	<path style="fill:none;stroke:gray;stroke-width:15;stroke-linecap:round;stroke-linejoin:round;stroke-miterlimit:10;" d="&#10;&#9;&#9;M377.746,419.002c-33.947,25.395-76.09,40.435-121.745,40.435c-112.355,0-203.438-91.082-203.438-203.437&#10;&#9;&#9;S143.645,52.562,256,52.562S459.438,143.644,459.438,256c0,54.71-21.596,104.376-56.729,140.937"/>
	<path style="fill:none;stroke:gray;stroke-width:15;stroke-linecap:round;stroke-linejoin:round;stroke-miterlimit:10;" d="&#10;&#9;&#9;M178.562,298.082l-15.598,15.598c-9.763,9.763-9.763,25.592,0,35.355c4.882,4.882,11.279,7.322,17.678,7.322&#10;&#9;&#9;c6.397,0,12.797-2.441,17.678-7.322l54.145-54.145c1.953-1.953,5.118-1.953,7.071,0l54.145,54.145&#10;&#9;&#9;c4.882,4.881,11.279,7.322,17.678,7.322s12.796-2.441,17.678-7.322c9.763-9.763,9.763-25.592,0-35.355l-54.145-54.145&#10;&#9;&#9;c-1.953-1.953-1.953-5.118,0-7.071l54.145-54.145c9.763-9.763,9.763-25.592,0-35.355c-9.763-9.762-25.593-9.762-35.355,0&#10;&#9;&#9;l-54.145,54.145c-1.953,1.953-5.118,1.953-7.071,0l-54.145-54.145c-9.764-9.763-25.592-9.763-35.355,0&#10;&#9;&#9;c-9.763,9.763-9.763,25.592,0,35.355l54.145,54.145c1.953,1.953,1.953,5.118,0,7.071l-15.435,15.435"/>
</g>















</svg>
