<svg id="fi_7278447" enable-background="new 0 0 1580 1580" height="512" viewBox="0 0 1580 1580" width="512" xmlns="http://www.w3.org/2000/svg"><g><g fill="rgb(0,0,0)"><path d="m1462.6 1558h-1345.2c-13.3 0-24-10.7-24-24v-536.1c0-13.3 10.7-24 24-24h1345.2c13.3 0 24 10.7 24 24v536.1c0 13.3-10.7 24-24 24zm-1321.2-48h1297.2v-488.1h-1297.2z"></path><path d="m1462.6 1021.9h-1345.2c-8.6 0-16.5-4.6-20.8-12s-4.3-16.5-.1-24l225.5-393.8c4.3-7.5 12.2-12.1 20.8-12.1h375.9c13.3 0 24 10.7 24 24s-10.7 24-24 24h-361.9l-198 345.9h1261.2l-209.9-345.9h-264.5c-13.3 0-24-10.7-24-24s10.7-24 24-24h278c8.4 0 16.2 4.4 20.5 11.6l238.9 393.9c4.5 7.4 4.6 16.7.4 24.2s-12.1 12.2-20.8 12.2z"></path><path d="m1014.2 825h-448.4c-13.3 0-24-10.7-24-24s10.7-24 24-24h448.4c13.3 0 24 10.7 24 24s-10.7 24-24 24z"></path><g><path d="m425.4 1402c-10.3 0-19.4-6.6-22.7-16.3l-75.8-224.2c-4.2-12.6 2.5-26.2 15-30.4 12.6-4.2 26.2 2.5 30.4 15l53.1 156.9 53.1-156.9c4.2-12.6 17.9-19.3 30.4-15 12.6 4.2 19.3 17.9 15 30.4l-75.8 224.2c-3.2 9.8-12.4 16.3-22.7 16.3z"></path><path d="m672.1 1402c-55 0-99.8-44.8-99.8-99.8v-72.6c0-55 44.8-99.8 99.8-99.8s99.8 44.8 99.8 99.8v72.6c0 55.1-44.8 99.8-99.8 99.8zm0-224.1c-28.6 0-51.8 23.2-51.8 51.8v72.6c0 28.6 23.2 51.8 51.8 51.8s51.8-23.2 51.8-51.8v-72.6c0-28.6-23.3-51.8-51.8-51.8z"></path><g><path d="m913.7 1402c-13.3 0-24-10.7-24-24v-224.2c0-13.3 10.7-24 24-24s24 10.7 24 24v224.2c0 13.3-10.8 24-24 24z"></path><path d="m989.5 1177.9h-151.6c-13.3 0-24-10.7-24-24s10.7-24 24-24h151.6c13.3 0 24 10.7 24 24s-10.8 24-24 24z"></path></g><g><path d="m1230.4 1290h-130.4c-13.3 0-24-10.7-24-24s10.7-24 24-24h130.4c13.3 0 24 10.7 24 24s-10.8 24-24 24z"></path><path d="m1230.4 1402h-130.4c-13.3 0-24-10.7-24-24v-224.2c0-13.3 10.7-24 24-24h130.4c13.3 0 24 10.7 24 24s-10.7 24-24 24h-106.4v176.2h106.4c13.3 0 24 10.7 24 24s-10.8 24-24 24z"></path></g></g></g><g><path d="m1280.6 508.7c-38.7 0-80.5-19.1-117.8-36.1-16.1-7.3-31.2-14.2-42.9-18-14.1-4.5-39.3-7.4-66-10.5l-2-.2c-52.8-6.1-112.6-13-141.5-39.1-18.6-16.7-27.6-38.8-25.5-62.2 2-22.2 14-42.1 32.1-53.2 26.3-16.3 72.4-13.1 151.7-6.2 17.1 1.5 34.7 3 52.2 4.2 47.8 3.3 107.2 5.3 142.4-9.1 12.3-5 26.3.9 31.3 13.2s-.9 26.3-13.2 31.3c-44.1 18-107.6 16.4-163.9 12.5-17.9-1.2-35.8-2.8-53.1-4.3-30.3-2.6-58.9-5.1-82-5.4-29.9-.3-38.4 3.5-40.3 4.6-5.1 3.2-8.8 9.7-9.5 16.7-.5 5.6.8 14.1 9.8 22.2 17.5 15.8 76.1 22.6 114.9 27.1l2 .2c30.4 3.5 56.6 6.5 75.1 12.5 14.4 4.6 30.8 12.1 48.2 20 33.6 15.3 75.4 34.4 104.2 31.5 36.1-3.7 63.6-23.6 80-35.4l2.6-1.9c2-1.4 3.9-2.9 5.9-4.4 18.4-14.2 40.3-23.6 63.3-27.5v-162c-7.5.5-14.8.8-21.9.8-59.5 0-108.3-17.2-152.4-32.8-30-10.6-58.3-20.6-86.4-23.8-30.5-3.5-78.1 4.8-137.7 23.8-12.6 4-26.1-2.9-30.2-15.6-4-12.6 2.9-26.1 15.6-30.2 66.9-21.4 120-30.1 157.7-25.8 33.6 3.8 64.4 14.7 97 26.2 52.9 18.7 107.6 38 178.6 26.7 6.9-1.1 14 .9 19.4 5.4 5.3 4.6 8.4 11.2 8.4 18.3v210.8c0 13.3-10.7 24-24 24-21.1 0-41.7 6.9-58 19.5-2.3 1.8-4.7 3.6-7.1 5.3l-2.5 1.8c-19 13.7-54.3 39.3-103.3 44.3-3.8.6-7.5.8-11.2.8z" fill="rgb(0,0,0)"></path><g><path d="m886.6 727.6c-4.2 0-8.4-1.1-12.2-3.4l-340.6-201.9c-5.5-3.2-9.4-8.5-11-14.7s-.6-12.7 2.6-18.2l270.1-455.6c3.2-5.5 8.5-9.4 14.7-11s12.7-.6 18.2 2.6l340.6 201.9c5.5 3.2 9.4 8.5 11 14.7s.6 12.7-2.6 18.2l-37.6 63.4c-4.6 7.8-13.2 12.3-22.3 11.7-17.9-1.2-35.8-2.8-53-4.3-30.3-2.6-58.9-5.1-82-5.4-29.9-.3-38.4 3.5-40.3 4.6-5.1 3.2-8.8 9.7-9.5 16.7-.5 5.6.8 14.1 9.8 22.2 17.5 15.8 76.1 22.6 114.9 27.1 8.1.9 15.1 5.9 18.7 13.2s3.3 15.9-.9 22.9l-167.9 283.5c-4.5 7.6-12.5 11.8-20.7 11.8zm-307.7-234.4 299.3 177.5 137.1-231.3c-41.7-5.7-82.6-14.4-104.9-34.6-18.6-16.7-27.6-38.8-25.5-62.2 2-22.2 14-42.1 32.1-53.2 26.3-16.3 72.4-13.1 151.7-6.2 12.3 1.1 24.9 2.2 37.5 3.2l17.8-30-299.4-177.5z" fill="rgb(0,0,0)"></path></g></g></g></svg>